<?xml version="1.0" encoding="utf-8"?>
<!-- Generator: Adobe Illustrator 19.0.0, SVG Export Plug-In . SVG Version: 6.00 Build 0)  -->
<svg version="1.1" xmlns="http://www.w3.org/2000/svg" xmlns:xlink="http://www.w3.org/1999/xlink" x="0px" y="0px"
	 viewBox="0 0 388.33 421.57" style="enable-background:new 0 0 388.33 421.57;" xml:space="preserve">
<style type="text/css">
	.st0{display:none;}
	.st1{display:inline;fill:url(#SVGID_1_);}
	.st2{display:inline;}
	.st3{opacity:0.3;}
	.st4{display:none;fill:url(#SVGID_2_);}
	.st5{fill:#5232E7;}
	.st6{fill:#FFFFFF;}
	.st7{fill:url(#SVGID_3_);}
	.st8{display:none;opacity:0.18;fill:#FFFFFF;}
	.st9{display:inline;fill:#00D4FF;}
	.st10{display:inline;fill:#5232E7;}
	.st11{display:none;fill:url(#SVGID_4_);}
	.st12{display:none;fill:#5232E7;}
	.st13{fill:#E8FFFF;}
	.st14{fill:#CBE1FF;}
	.st15{fill:#12005C;}
	.st16{fill:#B7C7FF;}
	.st17{fill:#0067FF;}
	.st18{fill:#410890;}
	.st19{fill:#FFE51C;}
	.st20{fill:#3BFAFF;}
	.st21{opacity:0.56;fill:#FFFF00;}
	.st22{opacity:0.57;fill:#00E2E7;}
	.st23{fill:#FF1C4D;}
	.st24{fill:#0040DE;}
	.st25{fill:#CFE4FF;}
	.st26{fill:#000D3A;}
	.st27{fill:#000F1F;}
	.st28{fill:#001F5E;}
	.st29{fill:#F5FDFF;}
	.st30{fill:#FFCDA9;}
	.st31{fill:#21EEFF;}
	.st32{fill:#131637;}
	.st33{fill:#FF907D;}
	.st34{opacity:0.41;fill:#CFE4FF;}
	.st35{opacity:0.75;fill:#6B29AB;}
	.st36{opacity:0.75;fill:#00E6FF;}
	.st37{opacity:0.75;fill:none;stroke:#6B29AB;stroke-width:0.5;stroke-linecap:round;stroke-linejoin:round;stroke-miterlimit:10;}
	.st38{opacity:0.75;fill:none;stroke:#6B29AB;stroke-width:0.5;stroke-miterlimit:10;}
	.st39{opacity:0.75;fill:#68FFFF;}
	.st40{opacity:0.2;}
	.st41{fill:#10CEFF;}
	.st42{opacity:0.75;}
	.st43{fill:#00E6FF;}
	.st44{opacity:0.81;}
	.st45{fill:#002AB4;}
	.st46{fill:#FF2232;}
	.st47{fill:#B51413;}
	.st48{fill:#FFC500;}
	.st49{fill:#FF9700;}
	.st50{fill:#3DFF76;}
	.st51{fill:#1A9F58;}
	.st52{fill:#FFD000;}
	.st53{fill:#12D77E;}
	.st54{fill:#12FFFF;}
	.st55{fill:#FF3181;}
	.st56{opacity:0.21;fill:#017ABF;}
	.st57{fill:#C14DFF;}
	.st58{opacity:0.2;fill:#FFA41C;}
	.st59{fill:#FFA600;}
	.st60{opacity:0.2;fill:#10CEFF;}
	.st61{opacity:0.81;fill:#410890;}
	.st62{opacity:0.3;fill:#002AB4;}
	.st63{fill:none;stroke:#12D77E;stroke-linecap:round;stroke-linejoin:round;stroke-miterlimit:10;}
	.st64{fill:none;stroke:#12FFFF;stroke-linecap:round;stroke-linejoin:round;stroke-miterlimit:10;}
	.st65{fill:none;stroke:#FF3181;stroke-linecap:round;stroke-linejoin:round;stroke-miterlimit:10;}
	.st66{fill:none;stroke:#FFD000;stroke-linecap:round;stroke-linejoin:round;stroke-miterlimit:10;}
	.st67{opacity:0.53;fill:#FFA41C;}
	.st68{fill:#FFCB1C;}
	.st69{fill:#C6C7F0;}
	.st70{fill:#B0B8F0;}
	.st71{fill:#DCECFF;}
	.st72{fill:#1A0835;}
	.st73{fill:#C1CAE4;}
	.st74{fill:#00B8FF;}
	.st75{fill:#FF9C00;}
	.st76{fill:#FF8700;}
	.st77{fill:#000053;}
	.st78{fill:#FFB200;}
	.st79{fill:#00143E;}
	.st80{fill:#5884FF;}
	.st81{fill:#131647;}
	.st82{fill:none;stroke:#001F78;stroke-width:0.25;stroke-miterlimit:10;}
	.st83{fill:none;stroke:#001F78;stroke-width:0.25;stroke-linecap:round;stroke-linejoin:round;stroke-miterlimit:10;}
	.st84{fill:#D6D9FF;}
	.st85{opacity:0.09;fill:#017ABF;}
	.st86{fill:#B0E6FF;}
	.st87{fill:#BEEFFF;}
	.st88{fill:#D4FAFF;}
	.st89{fill:#A0D8FF;}
	.st90{fill:#FFC400;}
	.st91{fill:#00FFEA;}
	.st92{fill:#00EEEB;}
	.st93{fill:#E70F40;}
	.st94{fill:#B90235;}
	.st95{clip-path:url(#SVGID_6_);fill:url(#SVGID_7_);}
</style>
<g id="BACKGROUND" class="st0">
	<linearGradient id="SVGID_1_" gradientUnits="userSpaceOnUse" x1="-295.7017" y1="-118.7521" x2="433.5386" y2="439.9628">
		<stop  offset="0" style="stop-color:#0026FC"/>
		<stop  offset="0.3169" style="stop-color:#0018AD"/>
		<stop  offset="0.6469" style="stop-color:#010B60"/>
		<stop  offset="0.883" style="stop-color:#010330"/>
		<stop  offset="1" style="stop-color:#01001E"/>
	</linearGradient>
	<rect x="-331.83" y="-109.12" class="st1" width="750" height="500"/>
</g>
<g id="OBJECTS" class="st0">
	<g>
		<g class="st2">
			<g class="st3">
				
					<image style="overflow:visible;" width="2299" height="1330" xlink:href="43EF29EF.png"  transform="matrix(0.24 0 0 0.24 -232.7083 35.598)">
				</image>
			</g>
		</g>
	</g>
	<g class="st2">
		<linearGradient id="SVGID_2_" gradientUnits="userSpaceOnUse" x1="43.1667" y1="385.1237" x2="43.1667" y2="-27.1558">
			<stop  offset="0" style="stop-color:#CEE4FF"/>
			<stop  offset="0.5612" style="stop-color:#E3F0FF"/>
			<stop  offset="1" style="stop-color:#EEF6FF"/>
		</linearGradient>
		<path class="st4" d="M289.59,303.62h-492.85c-1.84,0-3.33-1.49-3.33-3.33V-33.68c0-1.84,1.49-3.33,3.33-3.33h492.85
			c1.84,0,3.33,1.49,3.33,3.33v333.96C292.92,302.13,291.43,303.62,289.59,303.62z"/>
		<g class="st0">
			<g class="st2">
				
					<text transform="matrix(0.9091 0 0 1 -177.8528 117.049)" style="fill:#282729; font-family:'Quicksand-Light'; font-size:17.3185px; letter-spacing:5.5;">PROGRAMMER</text>
			</g>
			
				<text transform="matrix(1 0 0 1 -176.3899 156.7492)" style="display:inline;fill:#9FACC6; font-family:'Quicksand-Regular'; font-size:11.377px; letter-spacing:5;">LANDING PAGES</text>
			<g class="st2">
				<rect x="-175.6" y="164.3" style="fill:none;" width="153.48" height="25.6"/>
				<text transform="matrix(1 0 0 1 -175.6028 169.1701)"><tspan x="0" y="0" style="fill:#9FACC6; font-family:'Quicksand-Regular'; font-size:6.5861px;">Lorem</tspan><tspan x="17.49" y="0" style="fill:#9FACC6; font-family:'Quicksand-Regular'; font-size:6.5861px;"> </tspan><tspan x="19.91" y="0" style="fill:#9FACC6; font-family:'Quicksand-Regular'; font-size:6.5861px;">ipsum</tspan><tspan x="35.99" y="0" style="fill:#9FACC6; font-family:'Quicksand-Regular'; font-size:6.5861px;"> </tspan><tspan x="38.42" y="0" style="fill:#9FACC6; font-family:'Quicksand-Regular'; font-size:6.5861px;">dolor</tspan><tspan x="52.13" y="0" style="fill:#9FACC6; font-family:'Quicksand-Regular'; font-size:6.5861px;"> </tspan><tspan x="54.55" y="0" style="fill:#9FACC6; font-family:'Quicksand-Regular'; font-size:6.5861px;">sit</tspan><tspan x="60" y="0" style="fill:#9FACC6; font-family:'Quicksand-Regular'; font-size:6.5861px;"> </tspan><tspan x="62.43" y="0" style="fill:#9FACC6; font-family:'Quicksand-Regular'; font-size:6.5861px;">amet,</tspan><tspan x="77.43" y="0" style="fill:#9FACC6; font-family:'Quicksand-Regular'; font-size:6.5861px;"> </tspan><tspan x="79.85" y="0" style="fill:#9FACC6; font-family:'Quicksand-Regular'; font-size:6.5861px;">consectetuer</tspan><tspan x="114.04" y="0" style="fill:#9FACC6; font-family:'Quicksand-Regular'; font-size:6.5861px;"> </tspan><tspan x="116.46" y="0" style="fill:#9FACC6; font-family:'Quicksand-Regular'; font-size:6.5861px;">adipiscing</tspan><tspan x="142.67" y="0" style="fill:#9FACC6; font-family:'Quicksand-Regular'; font-size:6.5861px;"> </tspan><tspan x="145.09" y="0" style="fill:#9FACC6; font-family:'Quicksand-Regular'; font-size:6.5861px;">elit, </tspan><tspan x="0" y="7.9" style="fill:#9FACC6; font-family:'Quicksand-Regular'; font-size:6.5861px;">sed</tspan><tspan x="9.43" y="7.9" style="fill:#9FACC6; font-family:'Quicksand-Regular'; font-size:6.5861px; letter-spacing:1;"> </tspan><tspan x="12.6" y="7.9" style="fill:#9FACC6; font-family:'Quicksand-Regular'; font-size:6.5861px;">diam</tspan><tspan x="26.23" y="7.9" style="fill:#9FACC6; font-family:'Quicksand-Regular'; font-size:6.5861px; letter-spacing:1;"> </tspan><tspan x="29.4" y="7.9" style="fill:#9FACC6; font-family:'Quicksand-Regular'; font-size:6.5861px;">nonummy</tspan><tspan x="57.44" y="7.9" style="fill:#9FACC6; font-family:'Quicksand-Regular'; font-size:6.5861px; letter-spacing:1;"> </tspan><tspan x="60.61" y="7.9" style="fill:#9FACC6; font-family:'Quicksand-Regular'; font-size:6.5861px;">nibh</tspan><tspan x="71.82" y="7.9" style="fill:#9FACC6; font-family:'Quicksand-Regular'; font-size:6.5861px; letter-spacing:1;"> </tspan><tspan x="74.99" y="7.9" style="fill:#9FACC6; font-family:'Quicksand-Regular'; font-size:6.5861px;">euismod</tspan><tspan x="97.79" y="7.9" style="fill:#9FACC6; font-family:'Quicksand-Regular'; font-size:6.5861px; letter-spacing:1;"> </tspan><tspan x="100.96" y="7.9" style="fill:#9FACC6; font-family:'Quicksand-Regular'; font-size:6.5861px;">tincidunt</tspan><tspan x="123.09" y="7.9" style="fill:#9FACC6; font-family:'Quicksand-Regular'; font-size:6.5861px; letter-spacing:1;"> </tspan><tspan x="126.26" y="7.9" style="fill:#9FACC6; font-family:'Quicksand-Regular'; font-size:6.5861px;">ut</tspan><tspan x="131.39" y="7.9" style="fill:#9FACC6; font-family:'Quicksand-Regular'; font-size:6.5861px; letter-spacing:1;"> </tspan><tspan x="134.55" y="7.9" style="fill:#9FACC6; font-family:'Quicksand-Regular'; font-size:6.5861px;">laoreet </tspan><tspan x="0" y="15.81" style="fill:#9FACC6; font-family:'Quicksand-Regular'; font-size:6.5861px;">dolore magna.</tspan></text>
			</g>
			<g class="st2">
				<g>
					<path class="st5" d="M-34.02,227.37h-131.95c-5.92,0-10.76-4.84-10.76-10.76l0,0c0-5.92,4.84-10.76,10.76-10.76h131.95
						c5.92,0,10.76,4.84,10.76,10.76l0,0C-23.26,222.53-28.11,227.37-34.02,227.37z"/>
				</g>
				<g>
					<path class="st6" d="M-106.74,228.4h-62c-6.5,0-11.81-5.32-11.81-11.81l0,0c0-6.5,5.32-11.81,11.81-11.81h62
						c6.5,0,11.81,5.32,11.81,11.81l0,0C-94.92,223.08-100.24,228.4-106.74,228.4z"/>
					<linearGradient id="SVGID_3_" gradientUnits="userSpaceOnUse" x1="-180.5522" y1="210.7852" x2="-94.9225" y2="210.7852">
						<stop  offset="0" style="stop-color:#CFECFF"/>
						<stop  offset="0.5117" style="stop-color:#DDF0FF"/>
						<stop  offset="1" style="stop-color:#E6F3FF"/>
					</linearGradient>
					<path class="st7" d="M-168.74,205.2h62c6.42,0,11.69,5.2,11.8,11.6c0-0.07,0.01-0.14,0.01-0.21c0-6.5-5.32-11.81-11.81-11.81
						h-62c-6.5,0-11.81,5.32-11.81,11.81c0,0.07,0.01,0.14,0.01,0.21C-180.42,210.4-175.16,205.2-168.74,205.2z"/>
					
						<text transform="matrix(0.968 0 0 1 -173.053 220.1843)" class="st6" style="font-family:'Quicksand-Bold'; font-size:8.773px; letter-spacing:1.03;">GET STARTED</text>
					<g>
						
							<text transform="matrix(1 0 0 1 -173.053 219.945)" style="fill:#282729; font-family:'Quicksand-Bold'; font-size:8.4926px; letter-spacing:1;">GET STARTED</text>
					</g>
				</g>
			</g>
		</g>
		<path class="st8" d="M288.74,303.08h-491.16c-2.31,0-4.18-1.87-4.18-4.18v0.54c0,2.31,1.87,4.18,4.18,4.18h491.16
			c2.31,0,4.18-1.87,4.18-4.18v-0.54C292.92,301.21,291.05,303.08,288.74,303.08z"/>
		<g class="st0">
			
				<text transform="matrix(0.9091 0 0 1 10.9568 -11.8138)" class="st10" style="font-family:'Quicksand-Regular'; font-size:9.6686px;">Home</text>
			
				<text transform="matrix(0.9091 0 0 1 50.5603 -11.8138)" class="st10" style="font-family:'Quicksand-Regular'; font-size:9.6686px;">Products</text>
			
				<text transform="matrix(0.9091 0 0 1 168.3513 -11.8138)" class="st10" style="font-family:'Quicksand-Regular'; font-size:9.6686px;">Blog</text>
			
				<text transform="matrix(0.9091 0 0 1 203.0086 -11.8138)" style="display:inline;fill:#003B9F; font-family:'Quicksand-Regular'; font-size:9.6686px;">Login</text>
			
				<text transform="matrix(0.9091 0 0 1 105.0105 -11.8138)" class="st10" style="font-family:'Quicksand-Regular'; font-size:9.6686px;">Resources</text>
			<path class="st9" d="M94-12.76l1.63-1.63c0.21-0.2,0.06-0.56-0.23-0.56h-3.27c-0.29,0-0.44,0.35-0.23,0.56l1.63,1.63
				C93.67-12.63,93.87-12.63,94-12.76z"/>
			<path class="st9" d="M153.25-12.76l1.63-1.63c0.21-0.2,0.06-0.56-0.23-0.56h-3.27c-0.29,0-0.44,0.35-0.23,0.56l1.63,1.63
				C152.92-12.63,153.12-12.63,153.25-12.76z"/>
		</g>
		<g class="st0">
			<path class="st10" d="M-137.67,258.2c-5.29,0-9.58,4.29-9.58,9.58c0,5.29,4.29,9.58,9.58,9.58c5.29,0,9.59-4.29,9.59-9.58
				C-128.08,262.49-132.38,258.2-137.67,258.2z M-166.47,258.2c-5.29,0-9.59,4.29-9.59,9.58c0,5.29,4.29,9.58,9.59,9.58
				c5.29,0,9.58-4.29,9.58-9.58C-156.88,262.49-161.17,258.2-166.47,258.2z M-106.8,258.29c-5.27,0-9.54,4.27-9.54,9.54
				c0,5.27,4.27,9.54,9.54,9.54c5.27,0,9.54-4.27,9.54-9.54C-97.26,262.56-101.53,258.29-106.8,258.29z"/>
		</g>
		<g class="st0">
			
				<text transform="matrix(0.9091 0 0 1 -167.8577 -9.7522)" class="st10" style="font-family:'Quicksand-Light'; font-size:10.0736px; letter-spacing:4.4;">YOUR LOGO</text>
		</g>
		<linearGradient id="SVGID_4_" gradientUnits="userSpaceOnUse" x1="-184.3976" y1="-13.6928" x2="-179.0763" y2="-13.6928">
			<stop  offset="0" style="stop-color:#FFFFFF"/>
			<stop  offset="1" style="stop-color:#CEE4FF"/>
		</linearGradient>
		<path class="st11" d="M-183.21-18.27h2.95c0.65,0,1.19-0.53,1.19-1.18c0-0.65-0.53-1.18-1.19-1.18h-2.95
			c-0.65,0-1.19,0.53-1.19,1.18C-184.4-18.8-183.86-18.27-183.21-18.27z M-180.26-14.74h-2.95c-0.65,0-1.19,0.53-1.19,1.18l0,0
			c0,0.65,0.53,1.18,1.19,1.18h2.95c0.65,0,1.19-0.53,1.19-1.18l0,0C-179.08-14.21-179.61-14.74-180.26-14.74z M-180.26-9.12h-2.95
			c-0.65,0-1.19,0.53-1.19,1.18c0,0.65,0.53,1.18,1.19,1.18h2.95c0.65,0,1.19-0.53,1.19-1.18C-179.08-8.59-179.61-9.12-180.26-9.12z
			"/>
		<path class="st12" d="M-183.21-18.39h2.95c0.65,0,1.19-0.53,1.19-1.19c0-0.65-0.53-1.19-1.19-1.19h-2.95
			c-0.65,0-1.19,0.53-1.19,1.19C-184.4-18.93-183.86-18.39-183.21-18.39z M-180.26-14.83h-2.95c-0.65,0-1.19,0.53-1.19,1.19v0
			c0,0.65,0.53,1.19,1.19,1.19h2.95c0.65,0,1.19-0.53,1.19-1.19v0C-179.08-14.29-179.61-14.83-180.26-14.83z M-180.26-9.14h-2.95
			c-0.65,0-1.19,0.53-1.19,1.19s0.53,1.19,1.19,1.19h2.95c0.65,0,1.19-0.53,1.19-1.19S-179.61-9.14-180.26-9.14z"/>
		<g class="st0">
			
				<text transform="matrix(0.9091 0 0 1 -176.7239 97.0588)" style="display:inline;fill:#282729; font-family:'JosefinSans-Bold'; font-size:32.0017px;">COMPUTER</text>
		</g>
		<g class="st0">
			<g class="st2">
				<path class="st6" d="M-135.08,267.79h-1.7v6.04h-2.51v-6.04h-1.2v-2.13h1.2v-1.38c0-1,0.47-2.54,2.53-2.54l1.86,0.01v2.08h-1.35
					c-0.22,0-0.54,0.11-0.54,0.57v1.26h1.92L-135.08,267.79z M-135.08,267.79"/>
			</g>
			<g class="st2">
				<g>
					<path class="st6" d="M-162.58,262.92h-7.77c-0.54,0-0.98,0.44-0.98,0.97v7.77c0,0.54,0.44,0.97,0.98,0.97h7.77
						c0.53,0,0.97-0.44,0.97-0.97v-7.77C-161.61,263.36-162.04,262.92-162.58,262.92L-162.58,262.92z M-166.47,265.84
						c1.07,0,1.94,0.87,1.94,1.94c0,1.07-0.87,1.94-1.94,1.94c-1.07,0-1.94-0.88-1.94-1.94
						C-168.41,266.72-167.54,265.84-166.47,265.84L-166.47,265.84z M-170.11,271.67c-0.15,0-0.24-0.1-0.24-0.24v-4.13h1.02
						c-0.05,0.15-0.05,0.34-0.05,0.49c0,1.61,1.31,2.91,2.91,2.91c1.6,0,2.91-1.31,2.91-2.91c0-0.14,0-0.34-0.05-0.49h1.03v4.13
						c0,0.14-0.1,0.24-0.24,0.24H-170.11z M-162.58,265.11c0,0.15-0.1,0.24-0.24,0.24h-0.97c-0.14,0-0.24-0.1-0.24-0.24v-0.97
						c0-0.14,0.1-0.25,0.24-0.25h0.97c0.14,0,0.24,0.1,0.24,0.25V265.11z M-162.58,265.11"/>
				</g>
			</g>
			<g class="st2">
				<path class="st6" d="M-103.79,261.26h-6.02c-0.37,0-0.68,0.3-0.68,0.67v11.8c0,0.38,0.31,0.68,0.68,0.68h6.02
					c0.37,0,0.67-0.3,0.67-0.68v-11.8C-103.11,261.56-103.41,261.26-103.79,261.26z M-106.84,274.06c-0.39,0-0.7-0.31-0.7-0.7
					c0-0.39,0.31-0.7,0.7-0.7c0.39,0,0.7,0.31,0.7,0.7C-106.14,273.75-106.45,274.06-106.84,274.06z M-103.92,271.75
					c0,0.29-0.24,0.53-0.53,0.53h-4.69c-0.29,0-0.53-0.24-0.53-0.53v-9.2c0-0.29,0.23-0.53,0.53-0.53h4.69
					c0.3,0,0.53,0.24,0.53,0.53V271.75z"/>
			</g>
		</g>
		<g class="st0">
			<g class="st2">
				<g>
					<g>
						<path class="st13" d="M57.57,173.01l105,61.57c2.46,1.44,5.5,1.48,7.98,0.1l75.01-42.24c0.91-0.5,1.48-1.46,1.48-2.5v-0.87
							l-112.31-64.38L57.6,168.04C56,168.93,55.98,172.08,57.57,173.01z"/>
						<path class="st14" d="M57.74,172.07l104.64,60.94c2.45,1.43,5.48,1.44,7.94,0.03l76.72-43.97l-112.17-65.33l-77.11,44.19
							C56.16,168.85,56.16,171.15,57.74,172.07z"/>
						<polygon class="st13" points="80.68,161.18 179.71,218.5 232.55,188.38 133.53,131.06 						"/>
						<g>
							<polygon class="st15" points="218.08,182.3 210.62,186.61 218.61,191.27 226.07,186.96 							"/>
							<polygon class="st15" points="208.22,185.24 215.68,180.93 207.69,176.27 200.23,180.58 							"/>
							<polygon class="st15" points="197.82,179.21 205.28,174.9 197.29,170.24 189.83,174.55 							"/>
							<polygon class="st15" points="187.42,173.17 194.88,168.86 186.9,164.21 179.44,168.52 							"/>
							<polygon class="st15" points="177.03,167.14 184.49,162.83 176.5,158.18 169.04,162.49 							"/>
							<polygon class="st15" points="166.63,161.11 174.09,156.8 166.11,152.14 158.64,156.45 							"/>
							<polygon class="st15" points="156.24,155.08 163.7,150.77 155.71,146.11 148.25,150.42 							"/>
							<polygon class="st15" points="145.84,149.05 153.3,144.74 145.31,140.08 137.85,144.39 							"/>
							<polygon class="st15" points="142.91,138.7 134.92,134.05 127.46,138.36 135.44,143.01 							"/>
							<polygon class="st15" points="201.95,191.74 209.94,196.4 217.4,192.09 209.41,187.43 							"/>
							<polygon class="st15" points="207,186.06 199.01,181.4 191.55,185.71 199.54,190.36 							"/>
							<polygon class="st15" points="196.6,180.02 188.62,175.37 181.16,179.68 189.14,184.33 							"/>
							<polygon class="st15" points="170.76,173.64 178.75,178.3 186.21,173.99 178.22,169.33 							"/>
							<polygon class="st15" points="160.36,167.61 168.35,172.27 175.81,167.96 167.83,163.3 							"/>
							<polygon class="st15" points="149.97,161.58 157.96,166.24 165.42,161.93 157.43,157.27 							"/>
							<polygon class="st15" points="139.57,155.55 147.56,160.2 155.02,155.89 147.03,151.24 							"/>
							<polygon class="st15" points="129.18,149.52 137.17,154.17 144.63,149.86 136.64,145.21 							"/>
							<polygon class="st15" points="134.23,143.83 126.24,139.17 118.78,143.48 126.77,148.14 							"/>
							<polygon class="st15" points="193.27,196.87 201.26,201.52 208.72,197.21 200.73,192.56 							"/>
							<polygon class="st15" points="198.33,191.18 190.34,186.53 182.88,190.83 190.86,195.49 							"/>
							<polygon class="st15" points="187.93,185.15 179.94,180.49 172.48,184.8 180.47,189.46 							"/>
							<polygon class="st15" points="177.53,179.12 169.55,174.46 162.08,178.77 170.07,183.43 							"/>
							<polygon class="st15" points="167.14,173.09 159.15,168.43 151.69,172.74 159.68,177.39 							"/>
							<polygon class="st15" points="156.74,167.05 148.75,162.4 141.29,166.71 149.28,171.36 							"/>
							<polygon class="st15" points="130.9,160.67 138.89,165.33 146.35,161.02 138.36,156.36 							"/>
							<polygon class="st15" points="120.5,154.64 128.49,159.3 135.95,154.99 127.96,150.33 							"/>
							<polygon class="st15" points="125.55,148.96 117.57,144.3 110.11,148.61 118.09,153.27 							"/>
							<polygon class="st15" points="184.6,201.99 192.58,206.65 200.05,202.34 192.06,197.68 							"/>
							<polygon class="st15" points="189.65,196.31 181.66,191.65 174.2,195.96 182.19,200.62 							"/>
							<polygon class="st15" points="179.25,190.28 171.27,185.62 163.81,189.93 171.79,194.59 							"/>
							<polygon class="st15" points="168.86,184.24 160.87,179.59 153.41,183.9 161.4,188.55 							"/>
							<polygon class="st15" points="158.46,178.21 150.47,173.56 143.01,177.86 151,182.52 							"/>
							<polygon class="st15" points="148.07,172.18 140.08,167.52 132.62,171.83 140.61,176.49 							"/>
							<polygon class="st15" points="137.67,166.15 129.68,161.49 122.22,165.8 130.21,170.46 							"/>
							<polygon class="st15" points="111.83,159.77 119.81,164.42 127.28,160.12 119.29,155.46 							"/>
							<polygon class="st15" points="116.88,154.08 108.89,149.43 101.43,153.74 109.42,158.39 							"/>
							<polygon class="st15" points="175.92,207.12 183.91,211.78 191.37,207.47 183.38,202.81 							"/>
							<polygon class="st15" points="172.99,196.78 165.53,201.09 173.51,205.74 180.97,201.43 							"/>
							<polygon class="st15" points="162.59,190.75 155.13,195.06 163.12,199.71 170.58,195.4 							"/>
							<polygon class="st15" points="149.78,183.34 149.79,183.34 141.8,178.68 141.77,178.7 139.38,177.31 139.39,177.31 
								131.4,172.65 131.37,172.67 128.98,171.29 129,171.27 121.01,166.62 120.96,166.64 120.96,166.64 113.5,170.95 
								152.72,193.68 160.18,189.37 							"/>
							<polygon class="st15" points="110.61,160.59 103.15,164.89 111.14,169.55 118.6,165.24 							"/>
							<polygon class="st15" points="100.22,154.55 92.76,158.86 100.74,163.52 108.2,159.21 							"/>
						</g>
						<path class="st13" d="M98.55,192.78l23.27,13.61l13.58-7.75c0.5-0.29,0.51-1.01,0.01-1.31l-20.38-11.91
							c-1.09-0.64-2.44-0.65-3.54-0.02L98.55,192.78z"/>
						<polygon class="st14" points="125.83,203.06 121.67,205.43 99.83,192.66 103.99,190.29 						"/>
						<path class="st13" d="M141.17,35.41l103.34,60.17c2.39,1.39,3.86,3.95,3.86,6.72l-1.34,86.78l-110.87-66.35V38.29
							C136.16,35.72,138.95,34.12,141.17,35.41z"/>
						<path class="st16" d="M139.83,36.44l102.26,59.54c3.06,1.78,4.94,5.05,4.94,8.6v84.5l-112.21-65.33V39.32
							C134.83,36.75,137.61,35.14,139.83,36.44z"/>
						<path class="st15" d="M247.04,178.55l-112.21-65.33V37.99c0-1.98,2.15-3.22,3.86-2.22l105.13,61.21c2,1.16,3.23,3.3,3.23,5.61
							V178.55z"/>
						<polygon class="st17" points="241.45,168.52 140.46,110.05 140.46,44.68 241.45,103.15 						"/>
						<polygon class="st18" points="238.64,146.59 175.66,110.08 175.66,69.99 238.64,106.5 						"/>
						<polygon class="st19" points="235.52,111.33 199.28,90.35 199.28,88.11 235.52,109.09 						"/>
						<polygon class="st19" points="235.52,117.18 199.28,96.2 199.28,93.96 235.52,114.95 						"/>
						<polygon class="st20" points="235.52,124.16 199.28,103.17 199.28,100.57 235.52,121.55 						"/>
						<polygon class="st20" points="235.52,130.18 199.28,109.2 199.28,106.6 235.52,127.58 						"/>
						<polygon class="st20" points="194.04,104.89 188.53,101.62 188.53,93.62 194.04,96.9 						"/>
						<polygon class="st20" points="184.44,99.26 178.92,95.98 178.92,87.99 184.44,91.26 						"/>
						<polygon class="st20" points="184.44,111.21 178.92,107.93 178.92,99.94 184.44,103.21 						"/>
					</g>
					<polygon class="st21" points="234.61,160.59 194.04,136.6 194.04,111.86 234.61,135.85 					"/>
					<polygon class="st22" points="199.28,126.44 187.27,119.34 187.27,112.01 199.28,119.12 					"/>
					<polygon class="st18" points="160.24,85.23 144.44,75.85 144.44,52.96 160.24,62.33 					"/>
					<polygon class="st20" points="165.68,98.37 153.1,90.9 153.1,72.67 165.68,80.13 					"/>
					<polygon class="st23" points="162.41,91.69 156.37,88.1 156.37,79.35 162.41,82.93 					"/>
					<polygon class="st20" points="170.06,118.39 165.42,115.64 165.42,108.92 170.06,111.67 					"/>
					<polygon class="st20" points="179.85,123.96 175.22,121.21 175.22,114.49 179.85,117.24 					"/>
					<polygon class="st23" points="159.52,64.79 151.14,59.89 151.14,58.95 159.52,63.85 					"/>
					<polygon class="st20" points="159.52,66.63 151.14,61.72 151.14,60.79 159.52,65.69 					"/>
					<polygon class="st20" points="155.33,67.71 146.95,62.81 146.95,61.87 155.33,66.77 					"/>
					<polygon class="st19" points="155.33,70.63 146.95,65.73 146.95,64.79 155.33,69.69 					"/>
					<polygon class="st20" points="150.35,70.79 146.95,68.8 146.95,67.87 150.35,69.85 					"/>
					<polygon class="st19" points="150.35,73.55 146.95,71.57 146.95,70.63 150.35,72.61 					"/>
					<polygon class="st20" points="150.35,76.32 146.95,74.33 146.95,73.4 150.35,75.38 					"/>
					<polygon class="st20" points="158.72,69.39 157.46,68.65 157.46,67.71 158.72,68.45 					"/>
					<polygon class="st23" points="158.72,70.83 157.46,70.09 157.46,69.15 158.72,69.89 					"/>
					<polygon class="st20" points="158.72,72.27 157.46,71.53 157.46,70.59 158.72,71.33 					"/>
					<polygon class="st23" points="158.72,73.71 157.46,72.97 157.46,72.03 158.72,72.77 					"/>
					<polygon class="st23" points="158.72,75.15 157.46,74.41 157.46,73.47 158.72,74.21 					"/>
					<polygon class="st24" points="232.55,145.21 208.56,131.16 208.56,128.48 232.55,142.52 					"/>
					<polygon class="st24" points="232.55,149.95 208.56,135.91 208.56,133.22 232.55,147.26 					"/>
					<polygon class="st24" points="232.55,154.69 198.18,134.56 198.18,131.88 232.55,152.01 					"/>
				</g>
				<g>
					<polygon class="st25" points="204.04,54.28 201.68,69.09 205.5,69.09 204.87,53.83 					"/>
					<path class="st26" d="M210.32,64.94l-22.92,0.88l-13.14,20.48l1.05,0.64c0,0,10.21-4.77,15.35-15.24
						c9.39,1.18,24.39-1.49,24.39-1.49l0.49-3.84"/>
					<polygon class="st27" points="175.31,86.95 174.25,89.2 167.16,84.14 174.25,86.31 					"/>
					<path class="st28" d="M188.53,91.79l-1.7-0.53l3.94-23.31l12.61,0.11l13.57,2.12c0,0,0.82,2.88-3.53,5.77
						c-3.63,2.41-7.92,0.93-7.92,0.93l-9.53-3.59C196.44,76.11,195.21,82.4,188.53,91.79z"/>
					<path class="st26" d="M203.84,68.11c0,0,3.31,6.94,12.34,5.01c0.85-1.62,0.76-2.95,0.76-2.95L203.84,68.11z"/>
					<polygon class="st27" points="186.83,91.26 178.09,93.1 188.39,94.13 188.53,91.79 					"/>
					<g>
						<path class="st29" d="M205.35,46.51c0,0,2.42,2.53,2.91,7.48c0,0-13.24,2.92-24.59-9.37l1.79-2.44
							C185.48,42.16,196.97,49.6,205.35,46.51z"/>
						<path class="st25" d="M202.3,54.17l2.58-7.35l0.08,7.46C204.18,54.29,203.29,54.26,202.3,54.17z"/>
						<path class="st30" d="M184.17,41.53l-2.65-1.92l-6.43,0c0,0-0.32,1.33,4.21,1.21l-0.29,1.37l1.43,1.76l2.5-0.19l0.59,0.46
							L184.17,41.53z"/>
						<polygon class="st31" points="182.33,43.65 184.17,41.26 185.48,42.16 183.68,44.61 						"/>
					</g>
					<g>
						<g>
							<path class="st30" d="M200.47,33.87c0,0-1.23,3.37-0.9,7.88c0,0,1.76,0.93,4.88,0.25l0.88,4.05c0,0,2.7-0.66,3.19-1.37
								c0.23-0.33,0.06-1.61,0.06-1.61l-0.61-2.81l-0.91,0.03l0.34-1.31c0,0,1.23-0.36,1.38-1.73c0.15-1.37-1.25-0.74-1.57-0.51
								l-0.34,0.92c0,0-0.26-1.86,0.74-2.56l-0.77-1.71C206.82,33.39,204.15,34.63,200.47,33.87z"/>
							<path class="st32" d="M207.59,35.1l-0.49-1.09c1.05-1.43-1.99-3.65-1.79-5.44c4.93,1,5.46,4.44,5.46,4.44
								c2.17,4.94-1.94,6.88-1.94,6.88c-0.16,0.94-0.67,1.29-0.67,1.29l-0.2-0.94l-0.91,0.03l0.33-1.31
								c1.06-0.5,1.69-1.84,1.11-2.35c-0.57-0.51-1.31,0.11-1.31,0.11l-0.34,0.92C206.5,35.67,207.59,35.1,207.59,35.1z"/>
							
								<ellipse transform="matrix(-0.9287 0.3707 -0.3707 -0.9287 408.9282 -10.8097)" class="st32" cx="205.5" cy="33.89" rx="2.45" ry="1.4"/>
							
								<ellipse transform="matrix(-0.9288 0.3707 -0.3707 -0.9288 412.5665 -9.4595)" class="st32" cx="207.19" cy="34.91" rx="1.13" ry="0.65"/>
							
								<ellipse transform="matrix(-0.9654 0.2609 -0.2609 -0.9654 407.7507 12.5634)" class="st32" cx="203.04" cy="33.35" rx="2.33" ry="1.16"/>
							
								<ellipse transform="matrix(-0.9653 0.261 -0.261 -0.9653 403.494 12.4668)" class="st32" cx="200.92" cy="33.02" rx="2.33" ry="1.16"/>
							<path class="st32" d="M198.61,29.37c-0.38,1,0.94,2.43,2.94,3.19c2.01,0.77,7.35,1.83,7.73,0.83c0.38-1,0.18-3.91-5.35-5.2
								C201.85,27.7,199,28.37,198.61,29.37z"/>
							<polygon class="st33" points="201.75,35.88 202.26,38.21 201.15,38.45 							"/>
							<g>
								<path class="st33" d="M202.01,40.61c0.12,0,0.23-0.01,0.35-0.04c0.78-0.17,1.33-0.88,1.29-1.68
									c-0.01-0.17-0.16-0.29-0.32-0.29c-0.17,0.01-0.3,0.15-0.29,0.32c0.02,0.51-0.32,0.95-0.81,1.06
									c-0.49,0.11-0.99-0.16-1.18-0.62c-0.06-0.16-0.24-0.23-0.4-0.17c-0.16,0.06-0.23,0.24-0.17,0.4
									C200.75,40.22,201.35,40.61,202.01,40.61z"/>
							</g>
						</g>
						<path class="st31" d="M216.95,70.18c0,0,0.79,1.97-4.65,1.48c-9.21-0.83-8.71-6.71-8.71-6.71l0.9-17.48
							c0,0,0.03-0.69,0.83-1.42c0.95-0.86,2.94-1.03,3.24-2.98c2.7-0.13,5.34,4.22,6.8,9.19C216.98,57.78,216.95,70.18,216.95,70.18
							z"/>
					</g>
					<path class="st34" d="M205.27,67.05c5.16-0.13,8.14-1.13,8.14-1.13s-0.16-12.4-0.65-15.32c-0.5-2.95-1.69-5.69-4.74-4.89
						c-3.13,0.82-2.01,5.26-2.01,5.26l2.4,10.17l-3.55,0.43L205.27,67.05z"/>
					<path class="st29" d="M205.19,50.91c0,0-0.73-4.54,2.62-5.08c3.32-0.54,4.28,2.39,4.47,5.43c0.19,2.97-1.04,14.91-1.04,14.91
						s-8.71,1.48-20.97-3.31l0.16-2.03l16.23,0.19L205.19,50.91z"/>
					<path class="st30" d="M189.16,60.89l-3.68-0.44l-3.03,1.28l-0.43,3.74c0,0,0.86,0.24,1.16-1.97l0.85-0.18
						c0,0,1.59,0.68,2.8,0.35c1.2-0.33,2.42-0.47,2.42-0.47L189.16,60.89z"/>
					
						<rect x="189.2" y="60.85" transform="matrix(-0.9993 0.0387 -0.0387 -0.9993 382.3433 116.6188)" class="st31" width="1.69" height="2.31"/>
					<g>
						<path class="st31" d="M173.98,57.75c0.34,0.09,0.54,0.45,0.54,0.45l5,8.65l-0.7,0.32l-5.41-9.36
							C173.41,57.81,173.62,57.65,173.98,57.75z"/>
						<path class="st13" d="M173.61,57.54c0.37,0.1,0.59,0.5,0.59,0.5l5.53,9.56l-0.77,0.35l-5.98-10.34
							C172.98,57.61,173.22,57.43,173.61,57.54z"/>
						
							<rect x="178.73" y="65.55" transform="matrix(0.9772 -0.2125 0.2125 0.9772 -9.7897 40.9484)" class="st13" width="13.76" height="0.95"/>
					</g>
				</g>
				<polygon class="st35" points="167.16,136.7 131.17,115.34 131.17,63.19 167.16,84.54 				"/>
				<polygon class="st36" points="152.34,129.89 123.01,112.49 123.01,69.99 152.34,87.39 				"/>
				<polyline class="st37" points="120.09,114.98 120.09,64.04 155.25,84.9 				"/>
				<polygon class="st35" points="130.08,119.51 110.92,108.14 110.92,80.38 130.08,91.74 				"/>
				<polygon class="st38" points="132.64,124.73 108.36,110.33 108.36,75.15 132.64,89.55 				"/>
				<polygon class="st36" points="115.87,111.62 104.44,104.83 104.44,88.26 115.87,95.05 				"/>
				<polygon class="st39" points="111.85,105.75 106.16,102.38 106.16,94.13 111.85,97.51 				"/>
				<polygon class="st35" points="107.98,103.66 104.34,101.5 104.34,96.22 107.98,98.38 				"/>
				<polygon class="st38" points="109,105.75 103.31,102.38 103.31,94.13 109,97.51 				"/>
				<polygon class="st35" points="105.79,102.91 102.88,101.19 102.88,96.97 105.79,98.7 				"/>
				<polygon class="st39" points="105.01,101.32 103.66,100.52 103.66,98.57 105.01,99.37 				"/>
				<g>
					<g class="st40">
						<path class="st41" d="M172.3,46.64l-24.13-0.03c-1.11,0-2.01-0.9-2.01-2.01l0-18.38c0-1.11,0.9-2.01,2.01-2.01l24.13,0.03
							c1.11,0,2.01,0.9,2.01,2.01l0,18.38C174.31,45.74,173.41,46.64,172.3,46.64z"/>
					</g>
					<g class="st42">
						<path class="st43" d="M172.89,24.23l-25.31-0.03c-0.79,0-1.43,0.64-1.43,1.42l0,3.82l28.16,0.03l0-3.82
							C174.32,24.86,173.68,24.23,172.89,24.23z"/>
					</g>
					<g class="st44">
						<g>
							<path class="st18" d="M171.14,44.92l-21.29-0.03c-0.92,0-1.66-0.74-1.66-1.66l-0.01-10.55c0-0.92,0.74-1.66,1.66-1.66
								l21.29,0.03c0.92,0,1.66,0.74,1.66,1.66l0.01,10.55C172.8,44.18,172.05,44.92,171.14,44.92z"/>
						</g>
					</g>
					<g class="st3">
						<circle class="st45" cx="148.97" cy="26.82" r="1.42"/>
					</g>
					<g class="st42">
						<circle class="st43" cx="148.97" cy="26.82" r="1.1"/>
					</g>
					<g>
						<circle class="st46" cx="148.97" cy="26.82" r="0.89"/>
					</g>
					<g>
						<circle class="st47" cx="148.97" cy="26.82" r="0.53"/>
					</g>
					<g class="st3">
						<circle class="st45" cx="153.08" cy="26.82" r="1.42"/>
					</g>
					<g class="st42">
						<circle class="st43" cx="153.08" cy="26.82" r="1.1"/>
					</g>
					<g>
						<circle class="st48" cx="153.08" cy="26.82" r="0.9"/>
					</g>
					<g>
						<circle class="st49" cx="153.08" cy="26.82" r="0.54"/>
					</g>
					<g class="st3">
						<circle class="st45" cx="157.18" cy="26.83" r="1.42"/>
					</g>
					<g class="st42">
						<circle class="st43" cx="157.18" cy="26.83" r="1.1"/>
					</g>
					<g>
						<circle class="st50" cx="157.18" cy="26.83" r="0.9"/>
					</g>
					<g>
						<circle class="st51" cx="157.18" cy="26.83" r="0.54"/>
					</g>
					<g>
						<path class="st52" d="M150.61,34.83c-0.05,0-0.1-0.02-0.14-0.06l-1.1-1.1c-0.04-0.04-0.06-0.09-0.06-0.14
							c0-0.05,0.02-0.1,0.06-0.14l1.1-1.1c0.08-0.08,0.2-0.08,0.28,0c0.08,0.08,0.08,0.2,0,0.28l-0.96,0.96l0.96,0.96
							c0.08,0.08,0.08,0.2,0,0.28C150.71,34.81,150.66,34.83,150.61,34.83z"/>
					</g>
					<g>
						<path class="st52" d="M153.39,34.83c-0.05,0-0.1-0.02-0.14-0.06c-0.08-0.08-0.08-0.2,0-0.28l0.96-0.96l-0.96-0.96
							c-0.08-0.08-0.08-0.2,0-0.28c0.08-0.08,0.2-0.08,0.28,0l1.1,1.1c0.04,0.04,0.06,0.09,0.06,0.14c0,0.05-0.02,0.1-0.06,0.14
							l-1.1,1.1C153.49,34.82,153.44,34.83,153.39,34.83z"/>
					</g>
					<g>
						<path class="st52" d="M151.53,35.02c-0.02,0-0.05,0-0.07-0.01c-0.1-0.04-0.16-0.15-0.12-0.25l0.88-2.39
							c0.04-0.1,0.15-0.16,0.25-0.12c0.1,0.04,0.16,0.15,0.12,0.25l-0.88,2.39C151.69,34.97,151.61,35.02,151.53,35.02z"/>
					</g>
					<g>
						<path class="st52" d="M155.66,35.26L155.66,35.26c-0.23,0-0.41-0.18-0.41-0.41c0-0.23,0.18-0.41,0.41-0.41
							c0.23,0,0.41,0.18,0.41,0.41v0C156.07,35.07,155.88,35.26,155.66,35.26z M155.66,34.64c-0.12,0-0.21,0.09-0.21,0.21
							c0,0.12,0.1,0.21,0.21,0.21c0,0,0,0,0,0c0.12,0,0.21-0.09,0.21-0.21C155.87,34.73,155.78,34.64,155.66,34.64z M155.97,34.85
							L155.97,34.85L155.97,34.85z"/>
					</g>
					<g>
						<path class="st52" d="M156.95,35.26L156.95,35.26c-0.11,0-0.21-0.04-0.29-0.12c-0.08-0.08-0.12-0.18-0.12-0.29
							c0-0.11,0.04-0.21,0.12-0.29c0.08-0.08,0.18-0.12,0.29-0.12h0c0.23,0,0.41,0.18,0.41,0.41c0,0.11-0.04,0.21-0.12,0.29
							C157.16,35.22,157.06,35.26,156.95,35.26z M156.95,34.64c-0.06,0-0.11,0.02-0.15,0.06c-0.04,0.04-0.06,0.09-0.06,0.15
							c0,0.06,0.02,0.11,0.06,0.15c0.04,0.04,0.09,0.06,0.15,0.06h0c0.06,0,0.11-0.02,0.15-0.06c0.04-0.04,0.06-0.09,0.06-0.15
							C157.16,34.73,157.06,34.64,156.95,34.64C156.95,34.64,156.95,34.64,156.95,34.64z"/>
					</g>
					<g>
						<path class="st52" d="M158.23,35.26L158.23,35.26c-0.23,0-0.41-0.18-0.41-0.41c0-0.23,0.18-0.41,0.41-0.41
							c0.23,0,0.41,0.18,0.41,0.41v0C158.64,35.08,158.46,35.26,158.23,35.26z M158.23,34.64c-0.12,0-0.21,0.1-0.21,0.21
							c0,0.12,0.1,0.21,0.21,0.21h0c0.12,0,0.21-0.09,0.21-0.21C158.45,34.73,158.35,34.64,158.23,34.64z M158.55,34.85
							L158.55,34.85L158.55,34.85z"/>
					</g>
					<g>
						<path class="st53" d="M168.27,37.3C168.27,37.3,168.27,37.3,168.27,37.3l-18.21-0.02c-0.11,0-0.2-0.09-0.2-0.2
							c0-0.11,0.09-0.2,0.2-0.2c0,0,0,0,0,0l18.21,0.02c0.11,0,0.2,0.09,0.2,0.2S168.38,37.3,168.27,37.3z"/>
					</g>
					<g>
						<path class="st53" d="M171.11,37.31L171.11,37.31l-0.83,0c-0.11,0-0.2-0.09-0.2-0.2c0-0.11,0.09-0.2,0.2-0.2h0l0.83,0
							c0.11,0,0.2,0.09,0.2,0.2C171.31,37.22,171.22,37.31,171.11,37.31z"/>
					</g>
					<g>
						<path class="st54" d="M162.87,39.9C162.87,39.9,162.87,39.9,162.87,39.9l-12.81-0.01c-0.11,0-0.2-0.09-0.2-0.2
							c0-0.11,0.09-0.2,0.2-0.2c0,0,0,0,0,0l12.81,0.01c0.11,0,0.2,0.09,0.2,0.2C163.07,39.82,162.98,39.9,162.87,39.9z"/>
					</g>
					<g>
						<path class="st54" d="M166.74,39.91C166.74,39.91,166.74,39.91,166.74,39.91l-0.79,0c-0.11,0-0.2-0.09-0.2-0.2
							c0-0.11,0.09-0.2,0.2-0.2c0,0,0,0,0,0l0.79,0c0.11,0,0.2,0.09,0.2,0.2C166.94,39.82,166.85,39.91,166.74,39.91z"/>
					</g>
					<g>
						<path class="st54" d="M162.87,41.4L162.87,41.4l-2.03,0c-0.11,0-0.2-0.09-0.2-0.2c0-0.11,0.09-0.2,0.2-0.2l0,0l2.03,0
							c0.11,0,0.2,0.09,0.2,0.2C163.07,41.32,162.98,41.4,162.87,41.4z"/>
					</g>
					<g>
						<path class="st54" d="M159.22,41.4L159.22,41.4l-2.03,0c-0.11,0-0.2-0.09-0.2-0.2c0-0.11,0.09-0.2,0.2-0.2l0,0l2.03,0
							c0.11,0,0.2,0.09,0.2,0.2C159.42,41.31,159.33,41.4,159.22,41.4z"/>
					</g>
					<g>
						<path class="st54" d="M155.17,41.39L155.17,41.39l-2.03,0c-0.11,0-0.2-0.09-0.2-0.2c0-0.11,0.09-0.2,0.2-0.2l0,0l2.03,0
							c0.11,0,0.2,0.09,0.2,0.2C155.37,41.31,155.28,41.39,155.17,41.39z"/>
					</g>
					<g>
						<path class="st55" d="M169.64,43.23C169.64,43.23,169.64,43.23,169.64,43.23l-16.51-0.02c-0.11,0-0.2-0.09-0.2-0.2
							c0-0.11,0.09-0.2,0.2-0.2c0,0,0,0,0,0l16.51,0.02c0.11,0,0.2,0.09,0.2,0.2C169.84,43.15,169.75,43.23,169.64,43.23z"/>
					</g>
					<g>
						<path class="st54" d="M150.79,41.39C150.79,41.39,150.79,41.39,150.79,41.39l-0.73,0c-0.11,0-0.2-0.09-0.2-0.2
							c0-0.11,0.09-0.2,0.2-0.2c0,0,0,0,0,0l0.73,0c0.11,0,0.2,0.09,0.2,0.2C150.99,41.3,150.9,41.39,150.79,41.39z"/>
					</g>
					<g>
						<path class="st54" d="M150.79,43.21L150.79,43.21l-0.73,0c-0.11,0-0.2-0.09-0.2-0.2c0-0.11,0.09-0.2,0.2-0.2l0,0l0.73,0
							c0.11,0,0.2,0.09,0.2,0.2C150.99,43.13,150.9,43.21,150.79,43.21z"/>
					</g>
				</g>
			</g>
			<g class="st2">
				<ellipse class="st56" cx="117.82" cy="256.19" rx="19.06" ry="1.68"/>
				<ellipse class="st56" cx="248.43" cy="256.2" rx="19.06" ry="2"/>
				<ellipse class="st56" cx="146.6" cy="256.92" rx="4.74" ry="0.95"/>
				<g>
					<g>
						<g>
							<g>
								<g>
									<polygon class="st27" points="242.68,253.27 242.68,255.14 234.94,255.14 240.18,253.27 									"/>
									<polygon class="st27" points="261.16,253.27 261.16,255.14 256.48,257.28 254.38,257.28 258.3,253.27 									"/>
									<path class="st28" d="M240.18,203.4v49.87h2.49c0,0,4.16-11.64,3.49-23.11l2.83-17.29l9.31,40.39h2.83
										c0,0,2.46-14.91-1-23.94l-1.33-25.93H240.18z"/>
									<path class="st26" d="M240.18,203.4c0,0,4.55,3.55,18.78,3.12l-0.16-3.12l-10.75-1.99"/>
									<polygon class="st26" points="248.99,212.88 245.81,206.52 246.17,230.16 									"/>
									<path class="st32" d="M246.15,157.21c0.21-0.36-1.06-0.5-0.91-0.88c3.5-0.68,7.37,0.05,7.6,2.89c0,0,4.86,4.24-0.97,9.79
										v0.74l-4.81-2.87l-3.89-5.41c0,0-0.46-0.01-1.02-0.18C243.78,160.27,245.17,158.85,246.15,157.21z"/>
									<path class="st33" d="M242.85,163.74c0,0-1.31,0.86-1.56,3.03h2.67L242.85,163.74z"/>
									<path class="st32" d="M243.13,161.9c0,0-3.63-0.64-2.63-4.5l1.23,0.69c0,0-1.51-1.8,0.96-4.99l3.53,3.57l0.75,3.6
										L243.13,161.9z"/>
									<polyline class="st29" points="242.34,167.64 242.54,168.84 244.46,168.8 245.73,167.09 244.86,166.39 									"/>
									<path class="st30" d="M251.88,169.67c0,0-2.93-1.64-2.83-3.92c0,0,2.08-0.43,1.73-1.95c-0.29-1.26-1.88-0.84-2.39,0.25
										v1.45c0,0-0.82-0.02-0.96-2.8l-0.96-1.23h-3.3c0,0-1.21,2.77-0.84,6.17h2.24c0,0-0.48,0.88-2.04,1.21
										c0.15,0.65,0.34,1.31,0.64,1.97h3.29l-0.01,2.85c0,0-0.3,1.95,1.26,2.35c2.97,0.75,4.17-2.51,4.17-2.51v-4.48V169.67z"/>
									<path class="st18" d="M246.97,176.95c-0.14-1.71-1.99-4.36-5.94-0.21c-4.97,5.23-11.21,11.89-23.79,8.91l-1.32,2.52
										c0,0,13.43,8.04,26.79-3.44C244.39,183.3,247.24,180.32,246.97,176.95z"/>
									<path class="st30" d="M217.48,186.24c0,0-0.71-1.17-1.09-1.46c0,0-1.7-1.75-1.98-2c0,0-0.55,0.23-0.22,0.86
										s0.93,1.29,0.93,1.29s-1.02-0.24-1.57-0.64c-0.55-0.4-1.65-1.15-2.07-1.07c-0.42,0.08-0.22,0.48-0.22,0.48
										s1.69,1.16,2.05,1.41c0.32,0.22,0.14,0.31,0.14,0.31s-2.23-0.84-2.63-0.99c-0.4-0.15-0.64,0.03-0.66,0.44
										c0,0,1.19,0.46,1.89,0.8c0.24,0.12,1.15,0.37,0.99,0.66c0,0-1.99-0.51-2.32-0.64c-0.32-0.13-0.59,0.1-0.49,0.47l2.64,0.91
										c0,0,0.17,0.1,0.07,0.2c-0.1,0.09-1.41,0.1-1.55,0.06c-0.14-0.04-0.59-0.11-0.61,0.28c0,0,0.01,0.13,0.43,0.21
										c0.42,0.08,2.38,0.52,2.38,0.52s1.26,0.43,2.75,0.14c1.5-0.29,1.7-0.89,1.12-0.2l-0.01-0.86L217.48,186.24z"/>
									<path class="st57" d="M257.47,180.49c-0.13-1.77-0.3-3.32-2.44-5.57c-0.65-0.69-3-1.45-3.16-1.45v0.03
										c-0.02,0.04-1.63,2.94-4.16,2.27c-1.55-0.41-1.26-2.12-1.26-2.12l0-0.04l-0.17,0c-2.18,0.21-4.13,3.74-4.79,8.1
										c-0.53,8.82-1.3,21.68-1.3,21.68c8.42,2.77,18.62,0,18.62,0c0,0,0,0,0.34,0.31L257.47,180.49z"/>
									<path class="st58" d="M240.27,199.27c8.4-4.73,9.28-12.2,10.03-18.26c0.55-4.42,2.99-4.96,4.5-4.31
										c0.79,0.96,1.37,1.96,1.52,3.21l-0.8,0.03c-0.13,0.81,0.98,2.14,0.88,2.69c-2.33,13.22-11.44,19.3-16.21,20.51
										C240.21,202.6,240.23,201.19,240.27,199.27z"/>
								</g>
							</g>
						</g>
					</g>
				</g>
				<g>
					<path class="st28" d="M125.91,203.4v49.87h-2.49c0,0-4.16-11.64-3.49-23.11l-2.83-17.29l-9.31,40.39h-2.83
						c0,0-2.46-14.91,1-23.94l1.33-25.93H125.91z"/>
					<path class="st26" d="M125.91,203.4c0,0-4.55,3.55-18.78,3.12l0.16-3.12l10.75-1.99"/>
					<path class="st30" d="M136.22,198.36c0,0,0.95-1.1,1.4-1.33c0,0,2.08-1.54,2.42-1.75c0,0,0.53,0.33,0.08,0.94
						c-0.46,0.61-1.2,1.19-1.2,1.19s1.11-0.07,1.75-0.4c0.64-0.32,1.92-0.92,2.35-0.76c0.43,0.16,0.15,0.54,0.15,0.54
						s-1.97,0.91-2.39,1.11c-0.37,0.18-0.2,0.3-0.2,0.3s2.48-0.49,2.93-0.58c0.44-0.09,0.67,0.14,0.61,0.57c0,0-1.32,0.27-2.12,0.51
						c-0.28,0.08-1.27,0.19-1.15,0.51c0,0,2.17-0.19,2.54-0.26c0.36-0.08,0.6,0.21,0.43,0.58l-2.92,0.49c0,0-0.2,0.07-0.1,0.2
						c0.08,0.11,1.46,0.35,1.61,0.34c0.15-0.01,0.63-0.02,0.59,0.39c0,0-0.03,0.14-0.48,0.15c-0.45,0.01-2.59,0.13-2.59,0.13
						s-1.39,0.23-2.91-0.33c-1.52-0.56-1.62-1.23-1.13-0.4l0.16-0.9L136.22,198.36z"/>
					<path class="st59" d="M118.58,176.32c0.92-1.45,4.37-2.31,5.93,3.2c1.97,6.94,4.4,15.74,16.92,18.94v2.85
						c0,0-15.63,0.88-22.13-15.49C118.49,183.76,116.78,179.18,118.58,176.32z"/>
					<path class="st19" d="M107.29,203.4c0,0,10.2,2.77,18.62,0c0,0-0.76-15.89-2.44-23.81c-0.76-3.59-2.21-5.97-4.42-5.97
						l-4.84-0.15c-0.16,0-1.9,0.44-2.85,1.48c-1.19,1.31-1.72,3.34-2.34,7.35l-2.08,21.41C107.29,203.4,107.29,203.4,107.29,203.4z"
						/>
					<path class="st60" d="M249.04,230.97L147.7,255.69c-2.72,0.66-5.46-1-6.13-3.72l-21.94-89.93c-0.66-2.72,1-5.46,3.72-6.13
						l101.33-24.72c2.72-0.66,5.46,1,6.13,3.72l21.94,89.93C253.42,227.56,251.76,230.31,249.04,230.97z"/>
					<path class="st36" d="M225.25,131.05l-102.44,24.99c-2.41,0.59-3.89,3.02-3.31,5.44l2.86,11.73l111.18-27.12l-2.86-11.73
						C230.1,131.94,227.67,130.46,225.25,131.05z"/>
					<path class="st61" d="M242.74,226.94l-90.96,22.19c-2.24,0.55-4.5-0.83-5.05-3.07l-15.97-65.47c-0.55-2.24,0.83-4.5,3.07-5.05
						l90.96-22.19c2.24-0.55,4.5,0.83,5.05,3.07l15.97,65.47C246.36,224.13,244.98,226.39,242.74,226.94z"/>
					<circle class="st62" cx="129.03" cy="163.05" r="4.48"/>
					<circle class="st36" cx="129.03" cy="163.05" r="3.47"/>
					<circle class="st46" cx="129.03" cy="163.05" r="2.84"/>
					<circle class="st47" cx="129.03" cy="163.05" r="1.71"/>
					<circle class="st62" cx="141.63" cy="159.98" r="4.48"/>
					<circle class="st36" cx="141.63" cy="159.98" r="3.47"/>
					<circle class="st48" cx="141.63" cy="159.98" r="2.84"/>
					<circle class="st49" cx="141.63" cy="159.98" r="1.71"/>
					<circle class="st62" cx="154.23" cy="156.9" r="4.48"/>
					<circle class="st36" cx="154.23" cy="156.9" r="3.47"/>
					<circle class="st50" cx="154.23" cy="156.9" r="2.84"/>
					<circle class="st51" cx="154.23" cy="156.9" r="1.71"/>
					<polyline class="st63" points="138.29,179.02 135.73,183.23 139.94,185.78 					"/>
					<polyline class="st63" points="146.79,176.94 151,179.5 148.45,183.71 					"/>
					<line class="st63" x1="142.9" y1="185.67" x2="143.8" y2="177.67"/>
					<circle class="st53" cx="155.58" cy="182.64" r="0.98"/>
					<circle class="st53" cx="159.53" cy="181.68" r="0.98"/>
					<circle class="st53" cx="163.48" cy="180.72" r="0.98"/>
					<line class="st63" x1="140.08" y1="193.71" x2="205.93" y2="177.65"/>
					<line class="st63" x1="212.09" y1="176.15" x2="219.93" y2="174.23"/>
					<line class="st63" x1="224.33" y1="173.16" x2="227.68" y2="172.34"/>
					<line class="st64" x1="142.03" y1="201.71" x2="191.32" y2="189.69"/>
					<line class="st64" x1="200.79" y1="187.38" x2="203.2" y2="186.8"/>
					<line class="st64" x1="204.32" y1="191.4" x2="196.69" y2="193.26"/>
					<line class="st64" x1="192.44" y1="194.29" x2="186.2" y2="195.82"/>
					<line class="st64" x1="181.25" y1="197.02" x2="175.01" y2="198.55"/>
					<line class="st64" x1="170.05" y1="199.76" x2="163.81" y2="201.28"/>
					<line class="st64" x1="158.86" y1="202.49" x2="152.62" y2="204.01"/>
					<line class="st65" x1="214.6" y1="194.82" x2="153.98" y2="209.6"/>
					<line class="st64" x1="145.41" y1="205.77" x2="143.16" y2="206.32"/>
					<line class="st64" x1="146.77" y1="211.36" x2="144.52" y2="211.91"/>
					<line class="st64" x1="148.14" y1="216.96" x2="145.89" y2="217.51"/>
					<line class="st64" x1="149.5" y1="222.55" x2="147.25" y2="223.1"/>
					<line class="st65" x1="220.45" y1="193.39" x2="227.11" y2="191.76"/>
					<line class="st65" x1="155.11" y1="215.25" x2="181.81" y2="208.74"/>
					<line class="st65" x1="156.51" y1="220.99" x2="183.21" y2="214.48"/>
					<line class="st65" x1="157.91" y1="226.72" x2="184.61" y2="220.21"/>
					<line class="st65" x1="159.31" y1="232.45" x2="186.01" y2="225.94"/>
					<line class="st66" x1="203.62" y1="221.64" x2="222.09" y2="217.14"/>
					<line class="st66" x1="211.1" y1="213.75" x2="220.69" y2="211.41"/>
					<line class="st66" x1="210.48" y1="207.68" x2="219.26" y2="205.54"/>
				</g>
				<g>
					<g>
						<g>
							<g>
								<g>
									<polygon class="st27" points="123.42,253.27 123.42,255.14 131.16,255.14 125.91,253.27 									"/>
									<polygon class="st27" points="104.94,253.27 104.94,255.14 109.61,257.28 111.71,257.28 107.79,253.27 									"/>
									<polygon class="st26" points="117.1,212.88 120.29,206.52 119.93,230.16 									"/>
									<path class="st32" d="M125.18,155.46c-0.21-0.36-4.19,0-5.91,0.26c-2-0.06-6.46,1.38-7.04,4.25c0,0-5.96,4.23,1.99,9.89
										l1.97-0.63l2.84-2.35l3.89-5.41c0,0,0.46-0.01,1.02-0.18C127,159.74,126.16,157.1,125.18,155.46z"/>
									<path class="st33" d="M123.25,163.74c0,0,1.31,0.86,1.56,3.03h-2.67L123.25,163.74z"/>
									<path class="st30" d="M115.61,169.01c0,0,1.15-1.56,1.44-3.26c0,0-2.08-0.43-1.73-1.95c0.29-1.26,1.88-0.84,2.39,0.25v1.45
										c0,0,0.82-0.02,0.96-2.8l0.96-1.23h3.3c0,0,1.21,2.77,0.84,6.17h-2.24c0,0,0.48,0.88,2.04,1.21
										c-0.15,0.65-0.34,1.31-0.64,1.97h-3.29v2.87l-0.01,2.49l-5.4-2.7v-3.61L115.61,169.01z"/>
									<path class="st67" d="M121.4,192.25c-3.69-2.95-6.08-7.22-7.94-11.55c-0.58-1.35-0.99-2.61-1.18-3.9
										c-0.35,0.66-0.59,1.37-0.65,2.18l-0.33,4.64c0.16,0.84,0.36,1.6,0.51,2.16c2.68,9.97,9.14,14.41,14.04,16.38
										c-0.06-1.13-0.17-2.95-0.33-5.14C123.75,195.56,122.42,193.94,121.4,192.25z"/>
								</g>
								<path class="st68" d="M111.31,176.32c0.92-1.45,4.37-2.31,5.93,3.2c1.97,6.94,4.4,15.74,16.92,18.94v2.85
									c0,0-15.63,0.88-22.13-15.49C111.22,183.76,109.51,179.18,111.31,176.32z"/>
								<path class="st30" d="M134.75,198.84c0,0,0.95-1.1,1.4-1.33c0,0,2.08-1.54,2.42-1.75c0,0,0.53,0.33,0.08,0.94
									c-0.46,0.61-1.2,1.19-1.2,1.19s1.11-0.07,1.75-0.4c0.64-0.32,1.92-0.92,2.35-0.76c0.43,0.16,0.15,0.54,0.15,0.54
									s-1.97,0.91-2.39,1.11c-0.37,0.18-0.2,0.3-0.2,0.3s2.48-0.49,2.93-0.58c0.44-0.09,0.67,0.14,0.61,0.57
									c0,0-1.32,0.27-2.12,0.51c-0.28,0.08-1.27,0.19-1.15,0.51c0,0,2.17-0.19,2.54-0.26c0.36-0.08,0.6,0.21,0.43,0.58l-2.92,0.49
									c0,0-0.2,0.08-0.1,0.2c0.08,0.11,1.46,0.35,1.61,0.34c0.15-0.01,0.63-0.02,0.59,0.39c0,0-0.03,0.14-0.48,0.15
									c-0.45,0.01-2.59,0.13-2.59,0.13s-1.39,0.23-2.91-0.33c-1.52-0.56-1.62-1.23-1.13-0.4l0.16-0.9L134.75,198.84z"/>
								<rect x="133.68" y="198.33" class="st19" width="1.6" height="2.99"/>
							</g>
						</g>
					</g>
				</g>
				<path class="st30" d="M233.46,199.26c0,0-1.01-1.05-1.47-1.25c0,0-2.17-1.42-2.52-1.61c0,0-0.51,0.36-0.02,0.94
					c0.49,0.58,1.27,1.12,1.27,1.12s-1.12-0.01-1.77-0.3c-0.66-0.28-1.97-0.81-2.39-0.62c-0.42,0.18-0.12,0.55-0.12,0.55
					s2.02,0.8,2.45,0.98c0.38,0.15,0.21,0.29,0.21,0.29s-2.51-0.35-2.95-0.41c-0.45-0.06-0.66,0.18-0.58,0.61
					c0,0,1.34,0.19,2.14,0.39c0.28,0.07,1.28,0.12,1.18,0.45c0,0-2.18-0.06-2.55-0.12c-0.37-0.06-0.59,0.25-0.4,0.61l2.95,0.32
					c0,0,0.2,0.06,0.11,0.19c-0.08,0.11-1.44,0.43-1.59,0.43c-0.15-0.01-0.63,0.02-0.57,0.43c0,0,0.04,0.14,0.49,0.12
					c0.45-0.02,2.59-0.02,2.59-0.02s1.4,0.15,2.88-0.49c1.49-0.65,1.55-1.32,1.11-0.47l-0.21-0.89L233.46,199.26z"/>
				<g>
					<g>
						<path class="st18" d="M255.96,176.88c-0.91-1.46-4.36-2.34-5.95,3.17c-2,6.93-4.48,15.71-17.02,18.86l-0.01,2.85
							c0,0,15.62,0.96,22.21-15.38C256.01,184.32,257.75,179.75,255.96,176.88z"/>
					</g>
				</g>
			</g>
			<g class="st2">
				<ellipse class="st56" cx="46.89" cy="255.73" rx="45.56" ry="4.26"/>
				<g>
					<g>
						<g>
							<g>
								<path class="st69" d="M72.97,211.31c0,0-5.33,0.68-5.25-7.72c-1.53-2.26-3.52-3.9-4.9-4.87v-1.02c0,0-0.24,0.22-0.62,0.6
									c-0.58-0.38-0.98-0.6-0.98-0.6l0.15,1.48c-0.91,1-2.15,2.49-3.46,4.42c0.09,8.4-5.25,7.72-5.25,7.72l10.14,0.29v0.05l0,0
									L72.97,211.31z"/>
								<path class="st70" d="M57.68,206.83h10.3c-0.1-0.53-0.17-1.1-0.21-1.72h-9.88C57.85,205.73,57.78,206.3,57.68,206.83z"/>
								<path class="st71" d="M91.32,197.72v6.3c0,1.1-0.89,1.99-1.99,1.99H36.33c-1.1,0-1.99-0.89-1.99-1.99v-6.35"/>
								<path class="st72" d="M89.2,170.64H36.46c-1.17,0-2.11,0.95-2.11,2.11v25.54h56.97v-25.54
									C91.32,171.58,90.37,170.64,89.2,170.64z"/>
								<g>
									<g>
										<path class="st73" d="M64.35,202.09c-0.28-0.5-0.8-0.84-1.41-0.84c-0.89,0-1.62,0.72-1.62,1.62
											c0,0.89,0.72,1.62,1.62,1.62c0.61,0,1.14-0.34,1.41-0.84C64.62,203.04,64.57,202.53,64.35,202.09z"/>
										<path class="st73" d="M63.99,199.88c-0.32-0.32-0.83-0.32-1.15,0c-0.32,0.32-0.32,0.83,0,1.15L63.99,199.88z"/>
									</g>
								</g>
							</g>
							<rect x="51.99" y="211.2" class="st71" width="21.67" height="0.88"/>
							<rect x="37.12" y="173.65" class="st17" width="51.82" height="21.96"/>
							<rect x="49.41" y="174.55" class="st18" width="33.63" height="14.25"/>
							<rect x="50.58" y="176.49" class="st20" width="31.29" height="1.16"/>
							<rect x="50.58" y="180.87" class="st20" width="31.29" height="1.16"/>
							<rect x="50.58" y="185.24" class="st20" width="31.29" height="1.16"/>
							<rect x="61.61" y="183.43" class="st20" width="23.99" height="10.17"/>
							<rect x="62.76" y="184.47" class="st74" width="9.54" height="8.09"/>
							<rect x="74.7" y="184.47" class="st74" width="9.54" height="0.7"/>
							<rect x="74.7" y="186.47" class="st74" width="9.54" height="0.7"/>
							<rect x="74.7" y="188.47" class="st74" width="9.54" height="0.7"/>
							<rect x="74.7" y="190.47" class="st74" width="9.54" height="0.7"/>
							<rect x="45.68" y="190.1" class="st23" width="11.88" height="4.19"/>
							<rect x="77.1" y="178.34" class="st19" width="9.5" height="10.17"/>
							<rect x="77.98" y="179.28" class="st75" width="4.04" height="4.33"/>
							<rect x="83.82" y="180.64" class="st75" width="1.5" height="1.6"/>
							<rect x="83.82" y="183.82" class="st75" width="1.5" height="1.6"/>
							<rect x="58.92" y="179.67" class="st19" width="7.02" height="7.52"/>
							<rect x="59.74" y="180.52" class="st18" width="5.38" height="0.29"/>
							<rect x="59.74" y="182.1" class="st18" width="5.38" height="0.29"/>
							<rect x="59.74" y="183.69" class="st18" width="5.38" height="0.29"/>
							<rect x="59.74" y="185.27" class="st18" width="5.38" height="0.29"/>
						</g>
					</g>
					<g>
						<g>
							<g>
								<g>
									<path class="st76" d="M81,213.71c0.2,0.15,5.4,5.4,5.4,5.4v-5.4H81z"/>
								</g>
								<g>
									<path class="st76" d="M12.09,213.71c-0.2,0.15-5.4,5.4-5.4,5.4v-5.4H12.09z"/>
								</g>
								<g>
									<g>
										<rect x="6.36" y="214.43" class="st75" width="1.8" height="41.31"/>
									</g>
									<g>
										<rect x="6.36" y="252.14" class="st77" width="1.8" height="3.6"/>
									</g>
								</g>
								<g>
									<rect x="3.51" y="211.82" class="st78" width="87.88" height="2.6"/>
								</g>
								<g>
									<g>
										<rect x="84.93" y="214.43" class="st75" width="1.8" height="41.31"/>
									</g>
									<g>
										<rect x="84.93" y="252.14" class="st77" width="1.8" height="3.6"/>
									</g>
								</g>
							</g>
						</g>
						<g>
							<g>
								<path class="st79" d="M46.99,232.68c0,0,0.02,10.98-10.19,20.92l-0.64-1.57l5.15-20.35L46.99,232.68z"/>
							</g>
							<g>
								<polygon class="st27" points="52.17,251.55 54.01,252.03 61.18,255.34 53.13,255.34 								"/>
							</g>
							<g>
								<polygon class="st27" points="35.97,251.55 37.8,252.03 44.97,255.34 36.93,255.34 								"/>
							</g>
							<g>
								<g>
									<g>
										<path class="st80" d="M53.5,256.86c0.08,0,0.15-0.01,0.23-0.05c0.31-0.13,0.46-0.48,0.34-0.79l-9.32-22.94
											c-0.13-0.31-0.48-0.46-0.8-0.34c-0.31,0.13-0.46,0.48-0.34,0.8l9.32,22.94C53.03,256.71,53.26,256.86,53.5,256.86z"/>
									</g>
									<g>
										<path class="st80" d="M37.88,256.86c0.08,0,0.15-0.01,0.23-0.05c0.31-0.13,0.46-0.48,0.34-0.79l-9.32-22.94
											c-0.13-0.31-0.48-0.46-0.8-0.34c-0.31,0.13-0.46,0.48-0.34,0.79l9.32,22.94C37.41,256.71,37.64,256.86,37.88,256.86z"/>
									</g>
								</g>
								<g>
									<g>
										<path class="st80" d="M11.71,256.86c0.24,0,0.47-0.14,0.57-0.38l9.32-22.94c0.13-0.31-0.02-0.67-0.34-0.8
											c-0.32-0.13-0.67,0.02-0.8,0.34l-9.32,22.94c-0.13,0.31,0.02,0.67,0.34,0.79C11.55,256.84,11.63,256.86,11.71,256.86z"/>
									</g>
									<g>
										<path class="st80" d="M27.33,256.86c0.24,0,0.47-0.14,0.57-0.38l9.32-22.94c0.13-0.31-0.02-0.67-0.34-0.8
											c-0.32-0.13-0.67,0.02-0.8,0.34l-9.32,22.94c-0.13,0.31,0.02,0.67,0.34,0.79C27.18,256.84,27.26,256.86,27.33,256.86z"/>
									</g>
								</g>
								<g>
									<path class="st28" d="M48.84,220.26l18.69,7.08l-13.52,24.69l-1.83-0.48c0,0-0.14-13.17,4.85-18.24H42.17l-7.94-1.62
										l-2.24-3.67l0.7-3.23l6.4-3.71"/>
								</g>
								<g>
									<path class="st6" d="M50.41,231.68H17.09v1.48c0,0.98,0.79,1.77,1.77,1.77h33.31v-1.48
										C52.17,232.48,51.38,231.68,50.41,231.68z"/>
								</g>
								<path class="st81" d="M38.8,173.48c-0.23-0.39-0.41-0.79-0.57-1.19c-2.16-0.07-6.02,0.26-6.65,3.37
									c0,0-5.76,4.59,1.04,10.57l2.13,0.24l3.07-2.53l4.2-5.84c0,0,0.49-0.02,1.1-0.19C41.36,176.79,39.86,175.25,38.8,173.48z"/>
								<path class="st33" d="M42.37,180.54c0,0,1.42,0.93,1.69,3.27h-2.89L42.37,180.54z"/>
								<path class="st30" d="M34.13,186.23c0,0,1.24-1.69,1.55-3.52c0,0-2.25-0.46-1.87-2.1c0.32-1.36,2.03-0.9,2.58,0.27v1.56
									c0,0,0.88-0.02,1.04-3.02l1.03-1.32h3.56c0,0,1.31,2.99,0.91,6.66h-2.41c0,0,0.52,0.95,2.2,1.3
									c-0.16,0.7-0.37,1.41-0.69,2.13h-3.55v2.59l-2.04,0.92l-1.76,0.56l-1.49-0.68l-0.55-1.91v-3.42H34.13z"/>
								<path class="st81" d="M38.23,178.38c0,0,2.86,1,5.83,0.26l-0.94-0.74c0,0,3.48-1.3,2.33-6.79l-6.48,1.19h-0.73l0.23,2.67"/>
								<ellipse class="st82" cx="41.48" cy="180.71" rx="0.84" ry="1.33"/>
								<line class="st83" x1="36.36" y1="180.54" x2="40.58" y2="180.54"/>
								<path class="st83" d="M42.4,180.71c0,0,0.23,0,0.47,0.11"/>
								<g>
									<path class="st23" d="M34.63,228.01c0,0,9.8-0.72,14.21-7.75c0,0-2.91-9.02-4.66-18.21c-1.75-9.2-2.47-11.9-5.53-12.62
										c-3.07-0.72-6.65,0-6.65,0s-6.87,3.61-7.23,16.77c0,13.53,2.57,19.48,2.57,19.48L34.63,228.01z"/>
								</g>
								<g>
									<path class="st84" d="M36.65,231.68l-6.1-21.92c0,0-2.95-9.73-13.46-9.73c-9.73,0-6.07,11.22-6.07,11.22l6.07,20.43H36.65z
										"/>
								</g>
							</g>
						</g>
						<path class="st30" d="M59.68,210.59c0,0,2.6,1.09,4.77-0.55h0.67l1.26,1.13h1.01l-0.86-2.06L63,207.88h-3.8L59.68,210.59z"/>
						<g>
							<g>
								<path class="st18" d="M38.78,191.46c0,0-4.12,0.45-2.54,6.82c1.63,6.57,6.92,12.21,6.92,12.21s9.28,1.93,17,0.51v-3.46
									c0,0-7.95,0.1-13.55-1.93c0,0-3.05-8.04-3.87-10.68C41.94,192.27,40.58,191.11,38.78,191.46z"/>
							</g>
						</g>
					</g>
				</g>
				<g>
					<g class="st40">
						<path class="st41" d="M100.13,154.06l-43.73-0.05c-1.81,0-3.28-1.47-3.28-3.28l0.04-46.43c0-1.81,1.47-3.28,3.28-3.28
							l43.73,0.05c1.81,0,3.28,1.47,3.28,3.28l-0.04,46.43C103.41,152.59,101.94,154.06,100.13,154.06z"/>
					</g>
					<g class="st42">
						<path class="st43" d="M101.14,101.07l-45.65-0.05c-1.28,0-2.32,1.04-2.32,2.32l-0.01,6.23l50.29,0.05l0.01-6.23
							C103.46,102.11,102.42,101.07,101.14,101.07z"/>
					</g>
					<g class="st44">
						<g>
							<path class="st18" d="M98.24,151.26l-39.1-0.04c-1.49,0-2.7-1.21-2.7-2.71l0.03-33.67c0-1.49,1.21-2.7,2.71-2.7l39.1,0.04
								c1.49,0,2.7,1.21,2.7,2.71l-0.03,33.67C100.94,150.05,99.73,151.26,98.24,151.26z"/>
						</g>
					</g>
					<g class="st3">
						<circle class="st45" cx="57.74" cy="105.29" r="2.31"/>
					</g>
					<g class="st42">
						<circle class="st43" cx="57.74" cy="105.29" r="1.79"/>
					</g>
					<g>
						<circle class="st46" cx="57.74" cy="105.29" r="1.45"/>
					</g>
					<g>
						<circle class="st47" cx="57.74" cy="105.29" r="0.87"/>
					</g>
					<g class="st3">
						<circle class="st45" cx="64.44" cy="105.3" r="2.31"/>
					</g>
					<g class="st42">
						<circle class="st43" cx="64.44" cy="105.3" r="1.79"/>
					</g>
					<g>
						<circle class="st48" cx="64.44" cy="105.3" r="1.46"/>
					</g>
					<g>
						<circle class="st49" cx="64.44" cy="105.3" r="0.88"/>
					</g>
					<g class="st3">
						<circle class="st45" cx="71.13" cy="105.31" r="2.31"/>
					</g>
					<g class="st42">
						<circle class="st43" cx="71.13" cy="105.31" r="1.79"/>
					</g>
					<g>
						<circle class="st50" cx="71.13" cy="105.31" r="1.46"/>
					</g>
					<g>
						<circle class="st51" cx="71.13" cy="105.31" r="0.88"/>
					</g>
					<g>
						<path class="st53" d="M60.42,118.35c-0.08,0-0.17-0.03-0.23-0.1l-1.79-1.8c-0.06-0.06-0.09-0.14-0.09-0.23
							c0-0.09,0.03-0.17,0.09-0.23l1.8-1.8c0.13-0.13,0.33-0.13,0.46,0c0.13,0.13,0.13,0.33,0,0.46l-1.57,1.57l1.56,1.57
							c0.13,0.13,0.13,0.33,0,0.46C60.59,118.32,60.5,118.35,60.42,118.35z"/>
					</g>
					<g>
						<path class="st53" d="M64.94,118.35c-0.08,0-0.17-0.03-0.23-0.09c-0.13-0.13-0.13-0.33,0-0.46l1.57-1.56l-1.57-1.57
							c-0.13-0.13-0.13-0.33,0-0.46c0.13-0.13,0.33-0.13,0.46,0l1.79,1.8c0.13,0.13,0.13,0.33,0,0.46l-1.8,1.79
							C65.11,118.32,65.02,118.35,64.94,118.35z"/>
					</g>
					<g>
						<path class="st53" d="M61.92,118.66c-0.04,0-0.07-0.01-0.11-0.02c-0.17-0.06-0.25-0.25-0.19-0.41l1.43-3.9
							c0.06-0.17,0.25-0.25,0.42-0.19c0.17,0.06,0.25,0.25,0.19,0.41l-1.43,3.9C62.18,118.58,62.05,118.66,61.92,118.66z"/>
					</g>
					<g>
						<circle class="st53" cx="68.64" cy="118.37" r="0.51"/>
					</g>
					<g>
						<circle class="st53" cx="70.74" cy="118.37" r="0.51"/>
					</g>
					<g>
						<circle class="st53" cx="72.84" cy="118.38" r="0.51"/>
					</g>
					<g>
						<path class="st53" d="M89.19,122.37C89.19,122.37,89.19,122.37,89.19,122.37l-29.67-0.03c-0.18,0-0.32-0.15-0.32-0.32
							c0-0.18,0.14-0.32,0.32-0.32c0,0,0,0,0,0l29.67,0.03c0.18,0,0.32,0.15,0.32,0.32C89.51,122.22,89.37,122.37,89.19,122.37z"/>
					</g>
					<g>
						<path class="st53" d="M93.82,122.38L93.82,122.38l-1.36,0c-0.18,0-0.32-0.15-0.32-0.32c0-0.18,0.15-0.32,0.32-0.32h0l1.36,0
							c0.18,0,0.32,0.15,0.32,0.32C94.14,122.23,94,122.38,93.82,122.38z"/>
					</g>
					<g>
						<path class="st53" d="M97.93,122.38L97.93,122.38l-1.78,0c-0.18,0-0.32-0.15-0.32-0.32c0-0.18,0.14-0.32,0.32-0.32l0,0l1.78,0
							c0.18,0,0.32,0.14,0.32,0.32C98.26,122.24,98.11,122.38,97.93,122.38z"/>
					</g>
					<g>
						<path class="st54" d="M80.39,126.61C80.39,126.61,80.39,126.61,80.39,126.61l-20.87-0.02c-0.18,0-0.32-0.15-0.32-0.32
							c0-0.18,0.15-0.32,0.32-0.32c0,0,0,0,0,0l20.87,0.02c0.18,0,0.32,0.15,0.32,0.32C80.71,126.47,80.57,126.61,80.39,126.61z"/>
					</g>
					<g>
						<path class="st54" d="M86.7,126.62C86.7,126.62,86.7,126.62,86.7,126.62l-1.28,0c-0.18,0-0.32-0.15-0.32-0.32
							c0-0.18,0.14-0.32,0.32-0.32c0,0,0,0,0,0l1.28,0c0.18,0,0.32,0.15,0.32,0.32C87.02,126.47,86.88,126.62,86.7,126.62z"/>
					</g>
					<g>
						<path class="st54" d="M80.39,129.06L80.39,129.06l-3.31,0c-0.18,0-0.32-0.15-0.32-0.32c0-0.18,0.14-0.32,0.32-0.32l0,0l3.31,0
							c0.18,0,0.32,0.15,0.32,0.32C80.71,128.91,80.57,129.06,80.39,129.06z"/>
					</g>
					<g>
						<path class="st54" d="M74.44,129.05L74.44,129.05l-3.31,0c-0.18,0-0.32-0.14-0.32-0.32c0-0.18,0.14-0.32,0.32-0.32l0,0l3.31,0
							c0.18,0,0.32,0.15,0.32,0.32C74.77,128.91,74.62,129.05,74.44,129.05z"/>
					</g>
					<g>
						<path class="st54" d="M67.85,129.04L67.85,129.04l-3.31,0c-0.18,0-0.32-0.15-0.32-0.32c0-0.18,0.14-0.32,0.32-0.32l0,0l3.31,0
							c0.18,0,0.32,0.15,0.32,0.32C68.17,128.9,68.03,129.04,67.85,129.04z"/>
					</g>
					<g>
						<path class="st55" d="M91.43,132.04C91.43,132.04,91.43,132.04,91.43,132.04l-26.9-0.03c-0.18,0-0.32-0.15-0.32-0.32
							c0-0.18,0.14-0.32,0.32-0.32c0,0,0,0,0,0l26.89,0.03c0.18,0,0.32,0.15,0.32,0.32C91.75,131.89,91.61,132.04,91.43,132.04z"/>
					</g>
					<g>
						<path class="st54" d="M60.71,129.03L60.71,129.03l-1.2,0c-0.18,0-0.32-0.15-0.32-0.32c0-0.18,0.14-0.32,0.32-0.32l0,0l1.2,0
							c0.18,0,0.32,0.14,0.32,0.32C61.03,128.89,60.89,129.03,60.71,129.03z"/>
					</g>
					<g>
						<path class="st54" d="M60.71,132L60.71,132l-1.2,0c-0.18,0-0.32-0.15-0.32-0.32c0-0.18,0.14-0.32,0.32-0.32l0,0l1.2,0
							c0.18,0,0.32,0.14,0.32,0.32C61.03,131.86,60.89,132,60.71,132z"/>
					</g>
					<g>
						<path class="st54" d="M60.7,134.98L60.7,134.98l-1.2,0c-0.18,0-0.32-0.15-0.32-0.32c0-0.18,0.14-0.32,0.32-0.32l0,0l1.2,0
							c0.18,0,0.32,0.14,0.32,0.32C61.03,134.83,60.88,134.98,60.7,134.98z"/>
					</g>
					<g>
						<path class="st54" d="M60.7,137.95C60.7,137.95,60.7,137.95,60.7,137.95l-1.2,0c-0.18,0-0.32-0.15-0.32-0.32
							c0-0.18,0.14-0.32,0.32-0.32c0,0,0,0,0,0l1.2,0c0.18,0,0.32,0.15,0.32,0.32C61.03,137.8,60.88,137.95,60.7,137.95z"/>
					</g>
					<g>
						<path class="st55" d="M73.29,134.99C73.29,134.99,73.29,134.99,73.29,134.99l-8.88-0.01c-0.18,0-0.32-0.15-0.32-0.32
							c0-0.18,0.15-0.32,0.32-0.32c0,0,0,0,0,0l8.88,0.01c0.18,0,0.32,0.15,0.32,0.32C73.61,134.85,73.47,134.99,73.29,134.99z"/>
					</g>
					<g>
						<path class="st55" d="M73.28,138.04C73.28,138.04,73.28,138.04,73.28,138.04l-8.88-0.01c-0.18,0-0.32-0.15-0.32-0.32
							c0-0.18,0.15-0.32,0.32-0.32c0,0,0,0,0,0l8.88,0.01c0.18,0,0.32,0.15,0.32,0.32C73.61,137.89,73.46,138.04,73.28,138.04z"/>
					</g>
					<g>
						<path class="st55" d="M73.28,141.08C73.28,141.08,73.28,141.08,73.28,141.08l-8.88-0.01c-0.18,0-0.32-0.15-0.32-0.32
							c0-0.18,0.15-0.32,0.32-0.32c0,0,0,0,0,0l8.88,0.01c0.18,0,0.32,0.15,0.32,0.32S73.46,141.08,73.28,141.08z"/>
					</g>
					<g>
						<path class="st55" d="M73.28,144.12C73.28,144.12,73.28,144.12,73.28,144.12l-8.88-0.01c-0.18,0-0.32-0.15-0.32-0.32
							c0-0.18,0.15-0.32,0.32-0.32c0,0,0,0,0,0l8.88,0.01c0.18,0,0.32,0.15,0.32,0.32C73.6,143.98,73.46,144.12,73.28,144.12z"/>
					</g>
					<g>
						<path class="st52" d="M92.44,144.14L92.44,144.14l-9.81-0.01c-0.18,0-0.32-0.15-0.32-0.32c0-0.18,0.14-0.32,0.32-0.32l0,0
							l9.81,0.01c0.18,0,0.32,0.15,0.32,0.32C92.77,144,92.62,144.14,92.44,144.14z"/>
					</g>
					<g>
						<path class="st52" d="M92.45,141.1L92.45,141.1l-5.1,0c-0.18,0-0.32-0.15-0.32-0.32c0-0.18,0.14-0.32,0.32-0.32l0,0l5.1,0
							c0.18,0,0.32,0.14,0.32,0.32C92.77,140.95,92.62,141.1,92.45,141.1z"/>
					</g>
					<g>
						<path class="st52" d="M92.45,137.98L92.45,137.98l-4.66,0c-0.18,0-0.32-0.14-0.32-0.32c0-0.18,0.14-0.32,0.32-0.32l0,0l4.66,0
							c0.18,0,0.32,0.14,0.32,0.32C92.77,137.84,92.63,137.98,92.45,137.98z"/>
					</g>
				</g>
				<g>
					<g class="st40">
						<path class="st41" d="M60.64,167.78l-24.13-0.03c-1.11,0-2.01-0.9-2.01-2.01l0.03-47.34c0-1.11,0.9-2.01,2.01-2.01l24.13,0.03
							c1.11,0,2.01,0.9,2.01,2.01l-0.03,47.34C62.65,166.88,61.75,167.78,60.64,167.78z"/>
					</g>
					<g class="st42">
						<path class="st43" d="M61.26,116.41l-25.31-0.03c-0.79,0-1.43,0.64-1.43,1.42l0,3.82l28.16,0.03l0-3.82
							C62.68,117.05,62.04,116.42,61.26,116.41z"/>
					</g>
					<g class="st44">
						<g>
							<path class="st18" d="M59.48,166.07l-21.29-0.03c-0.92,0-1.66-0.74-1.66-1.66l0.02-39.51c0-0.92,0.74-1.66,1.66-1.66
								l21.29,0.03c0.92,0,1.66,0.74,1.66,1.66l-0.02,39.51C61.14,165.32,60.39,166.07,59.48,166.07z"/>
						</g>
					</g>
					<g class="st3">
						<circle class="st45" cx="37.33" cy="119.01" r="1.42"/>
					</g>
					<g class="st42">
						<circle class="st43" cx="37.33" cy="119.01" r="1.1"/>
					</g>
					<g>
						<circle class="st46" cx="37.33" cy="119.01" r="0.89"/>
					</g>
					<g>
						<circle class="st47" cx="37.33" cy="119.01" r="0.53"/>
					</g>
					<g class="st3">
						<circle class="st45" cx="41.44" cy="119.01" r="1.42"/>
					</g>
					<g class="st42">
						<circle class="st43" cx="41.44" cy="119.01" r="1.1"/>
					</g>
					<g>
						<circle class="st48" cx="41.44" cy="119.01" r="0.9"/>
					</g>
					<g>
						<circle class="st49" cx="41.44" cy="119.01" r="0.54"/>
					</g>
					<g class="st3">
						<circle class="st45" cx="45.55" cy="119.02" r="1.42"/>
					</g>
					<g class="st42">
						<circle class="st43" cx="45.55" cy="119.02" r="1.1"/>
					</g>
					<g>
						<circle class="st50" cx="45.55" cy="119.02" r="0.9"/>
					</g>
					<g>
						<circle class="st51" cx="45.55" cy="119.02" r="0.54"/>
					</g>
					<g>
						<path class="st52" d="M38.98,127.02c-0.05,0-0.1-0.02-0.14-0.06l-1.1-1.1c-0.04-0.04-0.06-0.09-0.06-0.14
							c0-0.05,0.02-0.1,0.06-0.14l1.1-1.1c0.08-0.08,0.2-0.08,0.28,0c0.08,0.08,0.08,0.2,0,0.28l-0.96,0.96l0.96,0.96
							c0.08,0.08,0.08,0.2,0,0.28C39.08,127,39.03,127.02,38.98,127.02z"/>
					</g>
					<g>
						<path class="st52" d="M41.75,127.02c-0.05,0-0.1-0.02-0.14-0.06c-0.08-0.08-0.08-0.2,0-0.28l0.96-0.96l-0.96-0.96
							c-0.08-0.08-0.08-0.2,0-0.28c0.08-0.08,0.2-0.08,0.28,0l1.1,1.1c0.04,0.04,0.06,0.09,0.06,0.14c0,0.05-0.02,0.1-0.06,0.14
							l-1.1,1.1C41.85,127,41.8,127.02,41.75,127.02z"/>
					</g>
					<g>
						<path class="st52" d="M39.9,127.21c-0.02,0-0.05,0-0.07-0.01c-0.1-0.04-0.16-0.15-0.12-0.25l0.88-2.39
							c0.04-0.1,0.15-0.16,0.25-0.12c0.1,0.04,0.16,0.15,0.12,0.25l-0.88,2.39C40.05,127.16,39.98,127.21,39.9,127.21z"/>
					</g>
					<g>
						<path class="st52" d="M44.02,127.45L44.02,127.45c-0.23,0-0.41-0.18-0.41-0.41c0-0.23,0.18-0.41,0.41-0.41
							c0.23,0,0.41,0.18,0.41,0.41v0C44.43,127.26,44.25,127.45,44.02,127.45z M44.02,126.82c-0.12,0-0.21,0.1-0.21,0.21
							c0,0.12,0.1,0.21,0.21,0.21c0,0,0,0,0,0c0.12,0,0.21-0.09,0.21-0.21C44.24,126.92,44.14,126.82,44.02,126.82z M44.33,127.04
							L44.33,127.04L44.33,127.04z"/>
					</g>
					<g>
						<path class="st52" d="M45.31,127.45L45.31,127.45c-0.11,0-0.21-0.04-0.29-0.12c-0.08-0.08-0.12-0.18-0.12-0.29
							c0-0.11,0.04-0.21,0.12-0.29c0.08-0.08,0.18-0.12,0.29-0.12h0c0.23,0,0.41,0.18,0.41,0.41c0,0.11-0.04,0.21-0.12,0.29
							C45.52,127.4,45.42,127.45,45.31,127.45z M45.31,126.83c-0.06,0-0.11,0.02-0.15,0.06c-0.04,0.04-0.06,0.09-0.06,0.15
							c0,0.06,0.02,0.11,0.06,0.15c0.04,0.04,0.09,0.06,0.15,0.06h0c0.06,0,0.11-0.02,0.15-0.06c0.04-0.04,0.06-0.09,0.06-0.15
							C45.52,126.92,45.43,126.83,45.31,126.83C45.31,126.83,45.31,126.83,45.31,126.83z"/>
					</g>
					<g>
						<path class="st52" d="M46.6,127.45L46.6,127.45c-0.23,0-0.41-0.18-0.41-0.41c0-0.23,0.18-0.41,0.41-0.41
							c0.23,0,0.41,0.18,0.41,0.41v0C47.01,127.26,46.82,127.45,46.6,127.45z M46.6,126.83c-0.12,0-0.21,0.1-0.21,0.21
							c0,0.12,0.1,0.21,0.21,0.21h0c0.12,0,0.21-0.09,0.21-0.21C46.81,126.92,46.72,126.83,46.6,126.83z M46.91,127.04L46.91,127.04
							L46.91,127.04z"/>
					</g>
					<g>
						<path class="st53" d="M56.63,129.49C56.63,129.49,56.63,129.49,56.63,129.49l-18.21-0.02c-0.11,0-0.2-0.09-0.2-0.2
							c0-0.11,0.09-0.2,0.2-0.2c0,0,0,0,0,0l18.21,0.02c0.11,0,0.2,0.09,0.2,0.2C56.83,129.4,56.74,129.49,56.63,129.49z"/>
					</g>
					<g>
						<path class="st53" d="M49.19,151.91L49.19,151.91l-10.77-0.02c-0.11,0-0.2-0.09-0.2-0.2c0-0.11,0.09-0.2,0.2-0.2h0l10.77,0.02
							c0.11,0,0.2,0.09,0.2,0.2C49.39,151.82,49.3,151.91,49.19,151.91z"/>
					</g>
					<g>
						<path class="st53" d="M49.19,154.24L49.19,154.24l-10.77-0.02c-0.11,0-0.2-0.09-0.2-0.2c0-0.11,0.09-0.2,0.2-0.2h0l10.77,0.02
							c0.11,0,0.2,0.09,0.2,0.2C49.39,154.16,49.3,154.24,49.19,154.24z"/>
					</g>
					<g>
						<path class="st53" d="M49.19,156.58L49.19,156.58l-10.77-0.02c-0.11,0-0.2-0.09-0.2-0.2c0-0.11,0.09-0.2,0.2-0.2h0l10.77,0.02
							c0.11,0,0.2,0.09,0.2,0.2C49.39,156.49,49.3,156.58,49.19,156.58z"/>
					</g>
					<g>
						<path class="st53" d="M49.19,158.92L49.19,158.92l-10.77-0.02c-0.11,0-0.2-0.09-0.2-0.2c0-0.11,0.09-0.2,0.2-0.2h0l10.77,0.02
							c0.11,0,0.2,0.09,0.2,0.2C49.39,158.83,49.3,158.92,49.19,158.92z"/>
					</g>
					<g>
						<path class="st53" d="M49.19,161.25L49.19,161.25l-10.77-0.02c-0.11,0-0.2-0.09-0.2-0.2c0-0.11,0.09-0.2,0.2-0.2h0l10.77,0.02
							c0.11,0,0.2,0.09,0.2,0.2C49.39,161.16,49.3,161.25,49.19,161.25z"/>
					</g>
					<g>
						<path class="st53" d="M49.19,163.59L49.19,163.59l-10.77-0.02c-0.11,0-0.2-0.09-0.2-0.2c0-0.11,0.09-0.2,0.2-0.2h0l10.77,0.02
							c0.11,0,0.2,0.09,0.2,0.2C49.39,163.5,49.3,163.59,49.19,163.59z"/>
					</g>
					<g>
						<path class="st53" d="M59.48,129.49L59.48,129.49l-0.83,0c-0.11,0-0.2-0.09-0.2-0.2c0-0.11,0.09-0.2,0.2-0.2h0l0.83,0
							c0.11,0,0.2,0.09,0.2,0.2C59.67,129.41,59.59,129.49,59.48,129.49z"/>
					</g>
					<g>
						<path class="st54" d="M51.23,132.09C51.23,132.09,51.23,132.09,51.23,132.09l-12.81-0.01c-0.11,0-0.2-0.09-0.2-0.2
							c0-0.11,0.09-0.2,0.2-0.2c0,0,0,0,0,0l12.81,0.01c0.11,0,0.2,0.09,0.2,0.2C51.43,132,51.34,132.09,51.23,132.09z"/>
					</g>
					<g>
						<path class="st54" d="M55.1,132.1C55.1,132.1,55.1,132.1,55.1,132.1l-0.79,0c-0.11,0-0.2-0.09-0.2-0.2
							c0-0.11,0.09-0.2,0.2-0.2c0,0,0,0,0,0l0.79,0c0.11,0,0.2,0.09,0.2,0.2C55.3,132.01,55.21,132.1,55.1,132.1z"/>
					</g>
					<g>
						<path class="st54" d="M51.23,133.59L51.23,133.59l-2.03,0c-0.11,0-0.2-0.09-0.2-0.2c0-0.11,0.09-0.2,0.2-0.2l0,0l2.03,0
							c0.11,0,0.2,0.09,0.2,0.2C51.43,133.5,51.34,133.59,51.23,133.59z"/>
					</g>
					<g>
						<path class="st54" d="M47.58,133.59L47.58,133.59l-2.03,0c-0.11,0-0.2-0.09-0.2-0.2c0-0.11,0.09-0.2,0.2-0.2l0,0l2.03,0
							c0.11,0,0.2,0.09,0.2,0.2C47.78,133.5,47.69,133.59,47.58,133.59z"/>
					</g>
					<g>
						<path class="st54" d="M43.54,133.58L43.54,133.58l-2.03,0c-0.11,0-0.2-0.09-0.2-0.2c0-0.11,0.09-0.2,0.2-0.2l0,0l2.03,0
							c0.11,0,0.2,0.09,0.2,0.2C43.74,133.49,43.65,133.58,43.54,133.58z"/>
					</g>
					<g>
						<path class="st55" d="M58.01,135.42C58.01,135.42,58.01,135.42,58.01,135.42l-16.51-0.02c-0.11,0-0.2-0.09-0.2-0.2
							c0-0.11,0.09-0.2,0.2-0.2c0,0,0,0,0,0l16.51,0.02c0.11,0,0.2,0.09,0.2,0.2C58.21,135.33,58.12,135.42,58.01,135.42z"/>
					</g>
					<g>
						<path class="st54" d="M39.15,133.58C39.15,133.58,39.15,133.58,39.15,133.58l-0.73,0c-0.11,0-0.2-0.09-0.2-0.2
							c0-0.11,0.09-0.2,0.2-0.2c0,0,0,0,0,0l0.73,0c0.11,0,0.2,0.09,0.2,0.2C39.35,133.49,39.26,133.58,39.15,133.58z"/>
					</g>
					<g>
						<path class="st54" d="M39.15,135.4L39.15,135.4l-0.73,0c-0.11,0-0.2-0.09-0.2-0.2c0-0.11,0.09-0.2,0.2-0.2l0,0l0.73,0
							c0.11,0,0.2,0.09,0.2,0.2C39.35,135.31,39.26,135.4,39.15,135.4z"/>
					</g>
					<g>
						<path class="st54" d="M39.15,137.23L39.15,137.23l-0.73,0c-0.11,0-0.2-0.09-0.2-0.2c0-0.11,0.09-0.2,0.2-0.2l0,0l0.73,0
							c0.11,0,0.2,0.09,0.2,0.2C39.35,137.14,39.26,137.23,39.15,137.23z"/>
					</g>
					<g>
						<path class="st54" d="M39.15,139.05L39.15,139.05l-0.73,0c-0.11,0-0.2-0.09-0.2-0.2c0-0.11,0.09-0.2,0.2-0.2l0,0l0.73,0
							c0.11,0,0.2,0.09,0.2,0.2C39.35,138.96,39.26,139.05,39.15,139.05z"/>
					</g>
					<g>
						<path class="st55" d="M46.87,137.24C46.87,137.24,46.87,137.24,46.87,137.24l-5.45-0.01c-0.11,0-0.2-0.09-0.2-0.2
							s0.09-0.2,0.2-0.2c0,0,0,0,0,0l5.45,0.01c0.11,0,0.2,0.09,0.2,0.2S46.98,137.24,46.87,137.24z"/>
					</g>
					<g>
						<path class="st55" d="M46.87,139.11C46.87,139.11,46.87,139.11,46.87,139.11l-5.45-0.01c-0.11,0-0.2-0.09-0.2-0.2
							c0-0.11,0.09-0.2,0.2-0.2c0,0,0,0,0,0l5.45,0.01c0.11,0,0.2,0.09,0.2,0.2C47.07,139.02,46.98,139.11,46.87,139.11z"/>
					</g>
					<g>
						<path class="st55" d="M46.87,140.97C46.87,140.97,46.87,140.97,46.87,140.97l-5.45-0.01c-0.11,0-0.2-0.09-0.2-0.2
							c0-0.11,0.09-0.2,0.2-0.2c0,0,0,0,0,0l5.45,0.01c0.11,0,0.2,0.09,0.2,0.2C47.07,140.88,46.98,140.97,46.87,140.97z"/>
					</g>
					<g>
						<path class="st55" d="M46.87,142.84C46.87,142.84,46.87,142.84,46.87,142.84l-5.45-0.01c-0.11,0-0.2-0.09-0.2-0.2
							c0-0.11,0.09-0.2,0.2-0.2c0,0,0,0,0,0l5.45,0.01c0.11,0,0.2,0.09,0.2,0.2C47.07,142.75,46.98,142.84,46.87,142.84z"/>
					</g>
					<g>
						<path class="st55" d="M49.19,149.04c-0.11,0-0.2-0.09-0.2-0.2c0-0.11,0.09-0.2,0.2-0.2l9.65-0.01c0,0,0,0,0,0
							c0.11,0,0.2,0.09,0.2,0.2c0,0.11-0.09,0.2-0.2,0.2L49.19,149.04C49.19,149.04,49.19,149.04,49.19,149.04z"/>
					</g>
					<g>
						<path class="st55" d="M55.7,150.86c-0.11,0-0.2-0.09-0.2-0.2c0-0.11,0.09-0.2,0.2-0.2l3.18-0.01h0c0.11,0,0.2,0.09,0.2,0.2
							c0,0.11-0.09,0.2-0.2,0.2L55.7,150.86L55.7,150.86z"/>
					</g>
					<g>
						<path class="st55" d="M55.7,152.73c-0.11,0-0.2-0.09-0.2-0.2c0-0.11,0.09-0.2,0.2-0.2l3.18-0.01h0c0.11,0,0.2,0.09,0.2,0.2
							c0,0.11-0.09,0.2-0.2,0.2L55.7,152.73L55.7,152.73z"/>
					</g>
					<g>
						<path class="st55" d="M55.7,154.59c-0.11,0-0.2-0.09-0.2-0.2c0-0.11,0.09-0.2,0.2-0.2l3.18-0.01h0c0.11,0,0.2,0.09,0.2,0.2
							c0,0.11-0.09,0.2-0.2,0.2L55.7,154.59L55.7,154.59z"/>
					</g>
					<g>
						<path class="st55" d="M55.71,156.46c-0.11,0-0.2-0.09-0.2-0.2c0-0.11,0.09-0.2,0.2-0.2l3.18-0.01h0c0.11,0,0.2,0.09,0.2,0.2
							c0,0.11-0.09,0.2-0.2,0.2L55.71,156.46L55.71,156.46z"/>
					</g>
					<g>
						<path class="st52" d="M58.63,142.85L58.63,142.85l-6.02-0.01c-0.11,0-0.2-0.09-0.2-0.2c0-0.11,0.09-0.2,0.2-0.2l0,0l6.02,0.01
							c0.11,0,0.2,0.09,0.2,0.2C58.83,142.76,58.74,142.85,58.63,142.85z"/>
					</g>
					<g>
						<path class="st52" d="M49.98,146.31L49.98,146.31l-6.02-0.01c-0.11,0-0.2-0.09-0.2-0.2c0-0.11,0.09-0.2,0.2-0.2l0,0l6.02,0.01
							c0.11,0,0.2,0.09,0.2,0.2C50.18,146.22,50.09,146.31,49.98,146.31z"/>
					</g>
					<g>
						<path class="st52" d="M49.98,147.42L49.98,147.42l-6.02-0.01c-0.11,0-0.2-0.09-0.2-0.2c0-0.11,0.09-0.2,0.2-0.2l0,0l6.02,0.01
							c0.11,0,0.2,0.09,0.2,0.2C50.18,147.34,50.09,147.42,49.98,147.42z"/>
					</g>
					<g>
						<path class="st52" d="M58.63,140.98L58.63,140.98l-3.13,0c-0.11,0-0.2-0.09-0.2-0.2c0-0.11,0.09-0.2,0.2-0.2l0,0l3.13,0
							c0.11,0,0.2,0.09,0.2,0.2C58.83,140.9,58.74,140.98,58.63,140.98z"/>
					</g>
					<g>
						<path class="st52" d="M58.63,139.07L58.63,139.07l-2.86,0c-0.11,0-0.2-0.09-0.2-0.2c0-0.11,0.09-0.2,0.2-0.2l0,0l2.86,0
							c0.11,0,0.2,0.09,0.2,0.2C58.83,138.98,58.74,139.07,58.63,139.07z"/>
					</g>
					<g>
						<path class="st52" d="M51.52,140.98L51.52,140.98l-3.13,0c-0.11,0-0.2-0.09-0.2-0.2c0-0.11,0.09-0.2,0.2-0.2l0,0l3.13,0
							c0.11,0,0.2,0.09,0.2,0.2C51.72,140.9,51.63,140.98,51.52,140.98z"/>
					</g>
					<g>
						<path class="st52" d="M51.52,139.07L51.52,139.07l-2.86,0c-0.11,0-0.2-0.09-0.2-0.2c0-0.11,0.09-0.2,0.2-0.2l0,0l2.86,0
							c0.11,0,0.2,0.09,0.2,0.2C51.72,138.98,51.63,139.07,51.52,139.07z"/>
					</g>
					<g>
						<path class="st52" d="M53.75,140.98L53.75,140.98l-0.99,0c-0.11,0-0.2-0.09-0.2-0.2c0-0.11,0.09-0.2,0.2-0.2l0,0l0.99,0
							c0.11,0,0.2,0.09,0.2,0.2C53.95,140.89,53.86,140.98,53.75,140.98z"/>
					</g>
					<g>
						<path class="st52" d="M53.75,139.07L53.75,139.07l-0.91,0c-0.11,0-0.2-0.09-0.2-0.2c0-0.11,0.09-0.2,0.2-0.2l0,0l0.91,0
							c0.11,0,0.2,0.09,0.2,0.2C53.95,138.98,53.86,139.07,53.75,139.07z"/>
					</g>
					<g>
						<path class="st52" d="M52.51,158.82L52.51,158.82l-0.99,0c-0.11,0-0.2-0.09-0.2-0.2c0-0.11,0.09-0.2,0.2-0.2c0,0,0,0,0,0
							l0.99,0c0.11,0,0.2,0.09,0.2,0.2C52.71,158.73,52.62,158.82,52.51,158.82z"/>
					</g>
					<g>
						<path class="st52" d="M52.52,156.91L52.52,156.91l-0.91,0c-0.11,0-0.2-0.09-0.2-0.2c0-0.11,0.09-0.2,0.2-0.2l0,0l0.91,0
							c0.11,0,0.2,0.09,0.2,0.2C52.72,156.82,52.63,156.91,52.52,156.91z"/>
					</g>
					<g>
						<path class="st52" d="M52.51,163.12L52.51,163.12l-0.99,0c-0.11,0-0.2-0.09-0.2-0.2c0-0.11,0.09-0.2,0.2-0.2c0,0,0,0,0,0
							l0.99,0c0.11,0,0.2,0.09,0.2,0.2C52.71,163.03,52.62,163.12,52.51,163.12z"/>
					</g>
					<g>
						<path class="st52" d="M52.52,161.21L52.52,161.21l-0.91,0c-0.11,0-0.2-0.09-0.2-0.2c0-0.11,0.09-0.2,0.2-0.2l0,0l0.91,0
							c0.11,0,0.2,0.09,0.2,0.2C52.72,161.12,52.63,161.21,52.52,161.21z"/>
					</g>
					<g>
						<path class="st52" d="M54.81,163.12L54.81,163.12l-0.99,0c-0.11,0-0.2-0.09-0.2-0.2c0-0.11,0.09-0.2,0.2-0.2c0,0,0,0,0,0
							l0.99,0c0.11,0,0.2,0.09,0.2,0.2C55.01,163.03,54.92,163.12,54.81,163.12z"/>
					</g>
					<g>
						<path class="st52" d="M54.82,161.21L54.82,161.21l-0.91,0c-0.11,0-0.2-0.09-0.2-0.2c0-0.11,0.09-0.2,0.2-0.2l0,0l0.91,0
							c0.11,0,0.2,0.09,0.2,0.2C55.01,161.12,54.93,161.21,54.82,161.21z"/>
					</g>
					<g>
						<path class="st52" d="M57.11,163.12C57.11,163.12,57.11,163.12,57.11,163.12l-0.99,0c-0.11,0-0.2-0.09-0.2-0.2
							c0-0.11,0.09-0.2,0.2-0.2l0,0l0.99,0c0.11,0,0.2,0.09,0.2,0.2C57.31,163.03,57.22,163.12,57.11,163.12z"/>
					</g>
					<g>
						<path class="st52" d="M57.12,161.21L57.12,161.21l-0.91,0c-0.11,0-0.2-0.09-0.2-0.2c0-0.11,0.09-0.2,0.2-0.2l0,0l0.91,0
							c0.11,0,0.2,0.09,0.2,0.2C57.32,161.12,57.23,161.21,57.12,161.21z"/>
					</g>
					<g>
						<path class="st52" d="M59.41,163.12C59.41,163.12,59.41,163.12,59.41,163.12l-0.99,0c-0.11,0-0.2-0.09-0.2-0.2
							c0-0.11,0.09-0.2,0.2-0.2l0,0l0.99,0c0.11,0,0.2,0.09,0.2,0.2C59.61,163.03,59.52,163.12,59.41,163.12z"/>
					</g>
					<g>
						<path class="st52" d="M59.42,161.21L59.42,161.21l-0.91,0c-0.11,0-0.2-0.09-0.2-0.2c0-0.11,0.09-0.2,0.2-0.2l0,0l0.91,0
							c0.11,0,0.2,0.09,0.2,0.2C59.61,161.12,59.53,161.21,59.42,161.21z"/>
					</g>
				</g>
			</g>
			<g class="st2">
				<g>
					<ellipse class="st85" cx="194.49" cy="266.76" rx="8.23" ry="3.66"/>
					<path class="st86" d="M202.63,256.72l-1.33,0.31c-1.22-1.13-3.81-1.91-6.82-1.91c-3,0-5.6,0.78-6.82,1.91l-1.32-0.31l0.63,9.73
						l0,0c0.44,1.67,3.63,2.97,7.51,2.97c3.88,0,7.07-1.3,7.51-2.97l0,0L202.63,256.72z"/>
					<path class="st87" d="M189.09,265.08v1.61c0,0,1.32,0.72,3.68,0.7v-1.61C192.77,265.78,190.81,265.91,189.09,265.08z"/>
					<ellipse class="st88" cx="194.49" cy="256.19" rx="8.23" ry="3.66"/>
					<ellipse class="st89" cx="194.49" cy="255.82" rx="6.43" ry="2.86"/>
				</g>
				<g>
					<g>
						<path class="st90" d="M194.2,256.59l-14.93-13.7c0,0-0.13,3.07,1.9,4.69c2.03,1.63,3.66,1.05,3.91,3.6
							c0.25,2.55,1.97,4.01,3.48,4.23C191.64,255.87,192.35,257.51,194.2,256.59z"/>
						<path class="st78" d="M194.2,256.59l-14.93-13.7c0,0,3.04-0.39,4.84,1.49c1.79,1.88,1.36,3.56,3.92,3.59
							c2.56,0.03,4.16,1.62,4.51,3.1C193.25,254.11,194.95,254.68,194.2,256.59z"/>
					</g>
					<path class="st91" d="M194.49,256.8v-51.43c0,0-5.95,5.03-5.52,11.61c0.44,6.58,4.31,8.65-0.02,13.5
						c-4.33,4.85-4.11,10.55-1.94,13.76C191.45,250.76,189.6,254.92,194.49,256.8z"/>
					<path class="st92" d="M194.49,256.8v-51.43c0,0,5.95,5.03,5.52,11.61c-0.44,6.58-4.31,8.65,0.02,13.5
						c4.33,4.85,4.11,10.55,1.94,13.76C197.52,250.76,199.37,254.92,194.49,256.8z"/>
				</g>
				<g>
					<path class="st93" d="M196.61,256.87l10.65-32.04c0,0-4.75,1.9-5.84,6.09c-1.09,4.19,0.89,6.28-2.81,8.4
						c-3.7,2.12-4.75,5.72-4.06,8.17C195.96,252.48,193.95,254.69,196.61,256.87z"/>
					<path class="st94" d="M196.61,256.87l10.65-32.04c0,0,2.67,4.36,1.03,8.37c-1.63,4.01-4.48,4.5-2.78,8.41
						c1.7,3.92,0.38,7.43-1.64,8.97C199.75,253.74,200.04,256.72,196.61,256.87z"/>
				</g>
			</g>
		</g>
	</g>
</g>
<g id="DESIGNED_BY_FREEPIK" class="st0">
	<g class="st2">
		<g id="XMLID_337_">
			<g id="XMLID_356_">
				<path id="XMLID_364_" class="st6" d="M53.27,365.41c-0.43,0.44-0.8,0.93-1.11,1.45l-0.47-0.24c-0.07-0.3-0.35-0.5-0.66-0.47
					c-0.33,0.04-0.57,0.34-0.53,0.67c0.04,0.33,0.34,0.57,0.67,0.53c0.07-0.01,0.13-0.03,0.18-0.05l0.45,0.23
					c-0.25,0.55-0.43,1.14-0.54,1.74l0.75,0.13c0.23-1.31,0.85-2.51,1.79-3.47L53.27,365.41z"/>
				<path id="XMLID_363_" class="st6" d="M58.76,363.11c-0.17,0-0.34,0.01-0.51,0.02l-0.07-0.63c0.19-0.15,0.3-0.39,0.27-0.64
					c-0.05-0.39-0.4-0.67-0.8-0.63c-0.39,0.05-0.67,0.4-0.63,0.8c0.03,0.25,0.19,0.46,0.4,0.56l0.07,0.62
					c-0.71,0.12-1.4,0.33-2.06,0.65l0.33,0.68c0.93-0.45,1.94-0.67,3-0.67c0.5,0,0.99,0.05,1.47,0.16l0.16-0.74
					C59.86,363.17,59.31,363.11,58.76,363.11z"/>
				<path id="XMLID_362_" class="st6" d="M65.36,365.66c0.33-0.04,0.57-0.34,0.53-0.67c-0.04-0.33-0.34-0.57-0.67-0.53
					c-0.31,0.04-0.54,0.3-0.53,0.61l-0.42,0.36c-0.42-0.43-0.89-0.81-1.41-1.14l-0.4,0.64c1.13,0.71,2.02,1.73,2.56,2.93l0.69-0.31
					c-0.25-0.55-0.57-1.07-0.94-1.55l0.4-0.35C65.23,365.66,65.3,365.67,65.36,365.66z"/>
				<path id="XMLID_361_" class="st6" d="M58.21,373.32c-0.39,0.02-0.78,0.03-1.16,0.03c-0.88,0-1.73-0.06-2.48-0.18
					c-0.39-0.06-0.85-0.15-1.27-0.29c1.05,1.86,3.07,3.13,5.39,3.13c2.86,0,5.26-1.92,5.95-4.5c-0.68,0.45-1.51,0.83-2.46,1.12
					C61.01,373,59.63,373.23,58.21,373.32z"/>
				<path id="XMLID_357_" class="st6" d="M58.76,364.63c-3.35,0-6.08,2.67-6.08,5.94c0,0.43,0.05,0.85,0.14,1.26
					c0.67,0.48,2.71,0.89,5.35,0.73c2.88-0.17,5.3-0.96,6.67-2.16c-0.01-0.2-0.02-0.39-0.05-0.58
					C64.41,366.86,61.82,364.63,58.76,364.63z M56.6,371.14c-1.02,0-1.85-0.83-1.85-1.85c0-1.02,0.83-1.85,1.85-1.85
					c1.02,0,1.85,0.83,1.85,1.85C58.45,370.31,57.62,371.14,56.6,371.14z M61.34,370.23c-0.75,0-1.36-0.61-1.36-1.36
					c0-0.75,0.61-1.36,1.36-1.36c0.75,0,1.36,0.61,1.36,1.36C62.7,369.62,62.09,370.23,61.34,370.23z"/>
			</g>
			<path id="XMLID_354_" class="st6" d="M74.76,366.49c-0.29-0.12-0.81-0.31-1.38-0.24c-0.55,0.07-0.84,0.34-0.84,1.01v0.87h2.23
				v1.72h-2.23v5.45H70.6v-5.45h-1.34v-1.72h1.34v-0.89c0-1.68,0.9-2.78,2.57-2.78c0.64,0,1.16,0.12,1.59,0.31L74.76,366.49z"/>
			<path id="XMLID_352_" class="st6" d="M79.46,369.83c-0.18-0.03-0.36-0.05-0.53-0.05c-0.9,0-1.51,0.55-1.51,1.61v3.91H75.5v-7.17
				h1.87v0.78c0.45-0.67,1.14-0.98,2.02-0.98c0.41,0,0.85,0.13,1.09,0.34L79.46,369.83z"/>
			<path id="XMLID_349_" class="st6" d="M87.13,371.7c0,0.22-0.01,0.49-0.04,0.65h-5.08c0.21,1.04,0.93,1.49,1.84,1.49
				c0.62,0,1.3-0.25,1.81-0.69l1.13,1.24c-0.81,0.75-1.85,1.09-3.06,1.09c-2.2,0-3.72-1.5-3.72-3.75c0-2.26,1.48-3.8,3.63-3.8
				C85.71,367.94,87.12,369.47,87.13,371.7z M82.02,371.04h3.18c-0.18-0.92-0.73-1.44-1.56-1.44
				C82.72,369.6,82.19,370.15,82.02,371.04z"/>
			<path id="XMLID_346_" class="st6" d="M94.79,371.7c0,0.22-0.01,0.49-0.04,0.65h-5.08c0.21,1.04,0.93,1.49,1.84,1.49
				c0.62,0,1.3-0.25,1.81-0.69l1.13,1.24c-0.81,0.75-1.85,1.09-3.06,1.09c-2.2,0-3.72-1.5-3.72-3.75c0-2.26,1.48-3.8,3.63-3.8
				C93.36,367.94,94.78,369.47,94.79,371.7z M89.67,371.04h3.18c-0.18-0.92-0.73-1.44-1.56-1.44
				C90.37,369.6,89.84,370.15,89.67,371.04z"/>
			<path id="XMLID_343_" class="st6" d="M103.13,371.71c0,2.15-1.5,3.77-3.47,3.77c-0.96,0-1.64-0.38-2.11-0.93v3.71h-1.92v-10.13
				h1.89v0.79c0.47-0.58,1.15-0.98,2.14-0.98C101.64,367.94,103.13,369.56,103.13,371.71z M97.45,371.71c0,1.13,0.75,1.98,1.84,1.98
				c1.14,0,1.85-0.88,1.85-1.98c0-1.1-0.71-1.98-1.85-1.98C98.2,369.74,97.45,370.58,97.45,371.71z"/>
			<path id="XMLID_340_" class="st6" d="M106.23,365.78c0,0.7-0.54,1.23-1.24,1.23c-0.7,0-1.23-0.53-1.23-1.23
				c0-0.7,0.53-1.24,1.23-1.24C105.69,364.54,106.23,365.09,106.23,365.78z M105.98,375.3h-1.93v-7.17h1.93V375.3z"/>
			<path id="XMLID_338_" class="st6" d="M109.2,370.68l2.7-2.55h2.37l-3.48,3.38l3.5,3.8h-2.38l-2.72-2.9v2.9h-1.93v-10.66h1.93
				V370.68z"/>
		</g>
		<g>
			<path class="st6" d="M-22.42,375.24v-1.05c-0.53,0.72-1.39,1.23-2.39,1.23c-1.85,0-3.15-1.41-3.15-3.71
				c0-2.26,1.29-3.72,3.15-3.72c0.95,0,1.82,0.47,2.39,1.25v-3.76h1.1v9.77H-22.42z M-22.42,373.32v-3.21
				c-0.4-0.62-1.24-1.14-2.12-1.14c-1.42,0-2.27,1.17-2.27,2.74c0,1.57,0.85,2.72,2.27,2.72
				C-23.67,374.43-22.82,373.93-22.42,373.32z"/>
			<path class="st6" d="M-19.9,371.69c0-2.05,1.46-3.71,3.49-3.71c2.14,0,3.4,1.67,3.4,3.79v0.28h-5.73
				c0.09,1.33,1.03,2.45,2.55,2.45c0.81,0,1.63-0.32,2.18-0.89l0.53,0.72c-0.7,0.7-1.65,1.08-2.81,1.08
				C-18.39,375.41-19.9,373.9-19.9,371.69z M-16.43,368.89c-1.51,0-2.26,1.27-2.31,2.36h4.64
				C-14.12,370.2-14.82,368.89-16.43,368.89z"/>
			<path class="st6" d="M-12.23,374.3l0.57-0.79c0.47,0.54,1.36,1.01,2.33,1.01c1.08,0,1.67-0.51,1.67-1.22
				c0-1.71-4.38-0.66-4.38-3.28c0-1.1,0.95-2.04,2.64-2.04c1.2,0,2.05,0.45,2.62,1.03l-0.51,0.76c-0.42-0.51-1.2-0.89-2.11-0.89
				c-0.97,0-1.57,0.48-1.57,1.11c0,1.55,4.38,0.53,4.38,3.28c0,1.19-0.95,2.14-2.78,2.14C-10.53,375.41-11.51,375.06-12.23,374.3z"
				/>
			<path class="st6" d="M-5.36,366.42c0-0.41,0.34-0.75,0.73-0.75c0.41,0,0.75,0.34,0.75,0.75c0,0.41-0.34,0.73-0.75,0.73
				C-5.02,367.15-5.36,366.83-5.36,366.42z M-5.17,375.24v-7.07h1.1v7.07H-5.17z"/>
			<path class="st6" d="M-2.25,377.05l0.56-0.82c0.59,0.7,1.29,0.97,2.3,0.97c1.17,0,2.27-0.57,2.27-2.12v-1.01
				c-0.51,0.72-1.38,1.26-2.37,1.26c-1.85,0-3.15-1.38-3.15-3.66c0-2.27,1.29-3.68,3.15-3.68c0.95,0,1.8,0.47,2.37,1.25v-1.07h1.1
				v6.87c0,2.34-1.64,3.08-3.37,3.08C-0.6,378.11-1.42,377.87-2.25,377.05z M2.88,373.2v-3.09c-0.38-0.62-1.23-1.14-2.11-1.14
				c-1.42,0-2.27,1.13-2.27,2.7c0,1.55,0.85,2.7,2.27,2.7C1.64,374.36,2.49,373.82,2.88,373.2z"/>
			<path class="st6" d="M10.58,375.24v-4.63c0-1.24-0.63-1.64-1.58-1.64c-0.86,0-1.68,0.53-2.09,1.1v5.17H5.8v-7.07h1.1v1.03
				c0.5-0.59,1.46-1.2,2.52-1.2c1.48,0,2.26,0.75,2.26,2.29v4.97H10.58z"/>
			<path class="st6" d="M13.1,371.69c0-2.05,1.46-3.71,3.49-3.71c2.14,0,3.4,1.67,3.4,3.79v0.28h-5.73
				c0.09,1.33,1.03,2.45,2.55,2.45c0.81,0,1.63-0.32,2.18-0.89l0.53,0.72c-0.7,0.7-1.66,1.08-2.81,1.08
				C14.61,375.41,13.1,373.9,13.1,371.69z M16.57,368.89c-1.51,0-2.26,1.27-2.31,2.36h4.64C18.89,370.2,18.18,368.89,16.57,368.89z"
				/>
			<path class="st6" d="M26.52,375.24v-1.05c-0.53,0.72-1.39,1.23-2.39,1.23c-1.85,0-3.15-1.41-3.15-3.71
				c0-2.26,1.29-3.72,3.15-3.72c0.95,0,1.82,0.47,2.39,1.25v-3.76h1.1v9.77H26.52z M26.52,373.32v-3.21
				c-0.4-0.62-1.25-1.14-2.12-1.14c-1.42,0-2.27,1.17-2.27,2.74c0,1.57,0.85,2.72,2.27,2.72C25.27,374.43,26.12,373.93,26.52,373.32
				z"/>
			<path class="st6" d="M32.86,375.24v-9.77h1.1v3.76c0.57-0.78,1.42-1.25,2.39-1.25c1.85,0,3.15,1.46,3.15,3.72
				c0,2.3-1.3,3.71-3.15,3.71c-1,0-1.86-0.51-2.39-1.23v1.05H32.86z M36.07,374.43c1.44,0,2.29-1.16,2.29-2.72
				c0-1.57-0.85-2.74-2.29-2.74c-0.86,0-1.73,0.53-2.11,1.14v3.21C34.34,373.93,35.2,374.43,36.07,374.43z"/>
			<path class="st6" d="M40.7,377.01c0.16,0.07,0.42,0.12,0.6,0.12c0.48,0,0.81-0.16,1.05-0.75l0.47-1.07l-2.96-7.15h1.19l2.36,5.8
				l2.34-5.8h1.2l-3.54,8.51c-0.42,1.03-1.14,1.42-2.08,1.44c-0.23,0-0.6-0.04-0.81-0.1L40.7,377.01z"/>
		</g>
	</g>
</g>
<g id="Layer_4">
	<g>
		<defs>
			<path id="SVGID_5_" d="M289.59,303.62h-492.85c-1.84,0-3.33-1.49-3.33-3.33V-33.68c0-1.84,1.49-3.33,3.33-3.33h492.85
				c1.84,0,3.33,1.49,3.33,3.33v333.96C292.92,302.13,291.43,303.62,289.59,303.62z"/>
		</defs>
		<clipPath id="SVGID_6_">
			<use xlink:href="#SVGID_5_"  style="display:none;overflow:visible;"/>
		</clipPath>
		
			<linearGradient id="SVGID_7_" gradientUnits="userSpaceOnUse" x1="557.0156" y1="578.6064" x2="958.0098" y2="549.4236" gradientTransform="matrix(0.962 -0.2729 0.2729 0.962 -643.8868 -120.4496)">
			<stop  offset="0" style="stop-color:#F6682D"/>
			<stop  offset="0.0724" style="stop-color:#F67721"/>
			<stop  offset="0.1914" style="stop-color:#F78813"/>
			<stop  offset="0.3363" style="stop-color:#F79509"/>
			<stop  offset="0.532" style="stop-color:#F79C04"/>
			<stop  offset="1" style="stop-color:#F79E02"/>
		</linearGradient>
		<path class="st95" d="M305.52,0.08c-60.26-2.69-26.23,65.06-180.5,112.9C9.17,148.91-39.95,272.99,37.43,363.84
			c81.31,95.46,256.11,67.12,317.33-45.23c52.75-96.8,33.23-201.46,9.78-255.88C348.74,26.09,327.49,1.06,305.52,0.08z"/>
	</g>
</g>
</svg>
